<svg width="213" height="116" viewBox="0 0 213 116" fill="none" xmlns="http://www.w3.org/2000/svg">
<g clip-path="url(#clip0_714_9582)">
<path d="M97.3412 58.4796C97.3412 63.8379 93.1321 67.7863 87.9665 67.7863C82.8009 67.7863 78.5918 63.8379 78.5918 58.4796C78.5918 53.0835 82.8009 49.1729 87.9665 49.1729C93.1321 49.1729 97.3412 53.0835 97.3412 58.4796ZM93.2374 58.4796C93.2374 55.1312 90.7979 52.8402 87.9665 52.8402C85.1351 52.8402 82.6956 55.1312 82.6956 58.4796C82.6956 61.7944 85.1351 64.119 87.9665 64.119C90.7979 64.119 93.2374 61.7902 93.2374 58.4796Z" fill="#EA4335"/>
<path d="M117.565 58.4796C117.565 63.8379 113.356 67.7863 108.191 67.7863C103.025 67.7863 98.8159 63.8379 98.8159 58.4796C98.8159 53.0877 103.025 49.1729 108.191 49.1729C113.356 49.1729 117.565 53.0835 117.565 58.4796ZM113.462 58.4796C113.462 55.1312 111.022 52.8402 108.191 52.8402C105.359 52.8402 102.92 55.1312 102.92 58.4796C102.92 61.7944 105.359 64.119 108.191 64.119C111.022 64.119 113.462 61.7902 113.462 58.4796Z" fill="#FBBC05"/>
<path d="M136.946 49.7351V66.4436C136.946 73.3166 132.876 76.1237 128.064 76.1237C123.535 76.1237 120.809 73.1068 119.781 70.6396L123.354 69.1584C123.99 70.6731 125.549 72.4606 128.06 72.4606C131.14 72.4606 133.049 70.5682 133.049 67.0058V65.6673H132.905C131.987 66.796 130.217 67.7821 127.984 67.7821C123.312 67.7821 119.031 63.7288 119.031 58.5131C119.031 53.2598 123.312 49.1729 127.984 49.1729C130.213 49.1729 131.983 50.1589 132.905 51.2541H133.049V49.7393H136.946V49.7351ZM133.339 58.5131C133.339 55.2361 131.144 52.8402 128.351 52.8402C125.519 52.8402 123.147 55.2361 123.147 58.5131C123.147 61.7566 125.519 64.119 128.351 64.119C131.144 64.119 133.339 61.7566 133.339 58.5131Z" fill="#4285F4"/>
<path d="M143.372 39.9414V67.2154H139.369V39.9414H143.372Z" fill="#34A853"/>
<path d="M158.97 61.5429L162.155 63.6577C161.127 65.1725 158.65 67.7824 154.369 67.7824C149.06 67.7824 145.095 63.6955 145.095 58.4757C145.095 52.9411 149.094 49.1689 153.91 49.1689C158.759 49.1689 161.131 53.0125 161.906 55.0895L162.332 56.1469L149.839 61.2996C150.796 63.1668 152.283 64.1193 154.369 64.1193C156.459 64.1193 157.908 63.0955 158.97 61.5429ZM149.165 58.1945L157.516 54.7412C157.057 53.5789 155.675 52.7691 154.049 52.7691C151.963 52.7691 149.06 54.6028 149.165 58.1945V58.1945Z" fill="#EA4335"/>
<path d="M63.4404 56.0583V52.1099H76.8009C76.9315 52.798 76.999 53.612 76.999 54.4932C76.999 57.4556 76.1858 61.1187 73.5651 63.7286C71.016 66.3721 67.7591 67.7819 63.4446 67.7819C55.4477 67.7819 48.7231 61.2949 48.7231 53.3309C48.7231 45.3669 55.4477 38.8799 63.4446 38.8799C67.8686 38.8799 71.0202 40.6086 73.3881 42.8619L70.5904 45.648C68.8925 44.0619 66.592 42.8283 63.4404 42.8283C57.6007 42.8283 53.0334 47.5152 53.0334 53.3309C53.0334 59.1465 57.6007 63.8335 63.4404 63.8335C67.2282 63.8335 69.3854 62.3187 70.7674 60.9424C71.8882 59.8263 72.6255 58.2318 72.9162 56.0541L63.4404 56.0583V56.0583Z" fill="#4285F4"/>
</g>
<defs>
<clipPath id="clip0_714_9582">
<rect width="114.603" height="38.6032" fill="white" transform="translate(48.5713 38.6826)"/>
</clipPath>
</defs>
</svg>
