<svg width="214" height="116" viewBox="0 0 214 116" fill="none" xmlns="http://www.w3.org/2000/svg">
<g clip-path="url(#clip0_714_9603)">
<path fill-rule="evenodd" clip-rule="evenodd" d="M122.608 68.8716C115.387 74.3585 104.922 77.2859 95.9108 77.2859C83.276 77.2859 71.9016 72.4682 63.2963 64.4554C62.6202 63.8253 63.226 62.9666 64.0373 63.4573C73.324 69.0278 84.8067 72.379 96.668 72.379C104.667 72.379 113.467 70.6727 121.559 67.1319C122.781 66.5966 123.803 67.9572 122.608 68.8716" fill="#FF9900"/>
<path fill-rule="evenodd" clip-rule="evenodd" d="M125.611 65.3309C124.691 64.1153 119.51 64.7565 117.184 65.0409C116.475 65.1301 116.367 64.4945 117.005 64.0372C121.132 61.0429 127.904 61.9072 128.694 62.9109C129.483 63.9201 128.488 70.9181 124.61 74.2582C124.015 74.7712 123.447 74.4979 123.712 73.8177C124.583 71.5761 126.536 66.552 125.611 65.3309" fill="#FF9900"/>
<path fill-rule="evenodd" clip-rule="evenodd" d="M117.346 42.8987V39.988C117.346 39.5475 117.67 39.252 118.06 39.252H130.7C131.106 39.252 131.43 39.5531 131.43 39.988V42.4805C131.425 42.8987 131.084 43.4452 130.478 44.3094L123.928 53.9505C126.362 53.8891 128.931 54.2627 131.138 55.5452C131.636 55.8352 131.771 56.259 131.809 56.6772V59.7831C131.809 60.2068 131.354 60.7031 130.878 60.4466C126.99 58.3444 121.824 58.1158 117.524 60.4689C117.086 60.7143 116.626 60.2236 116.626 59.7998V56.85C116.626 56.3761 116.632 55.5675 117.092 54.8482L124.68 43.6292H118.076C117.67 43.6292 117.346 43.3336 117.346 42.8987" fill="black"/>
<path fill-rule="evenodd" clip-rule="evenodd" d="M71.2366 61.0595H67.391C67.0232 61.0317 66.7311 60.7473 66.7041 60.3848V40.0378C66.7041 39.6307 67.034 39.3073 67.4451 39.3073H71.0311C71.4043 39.324 71.7017 39.6195 71.7288 39.9876V42.6474H71.7991C72.7348 40.0768 74.4926 38.8779 76.8616 38.8779C79.2685 38.8779 80.7721 40.0768 81.8539 42.6474C82.7842 40.0768 84.899 38.8779 87.1652 38.8779C88.777 38.8779 90.5402 39.5638 91.6166 41.1028C92.8335 42.8146 92.5847 45.3016 92.5847 47.4818L92.5793 60.3235C92.5793 60.7305 92.2494 61.0595 91.8383 61.0595H87.9981C87.6141 61.0317 87.3058 60.7138 87.3058 60.3235V49.5394C87.3058 48.6807 87.3815 46.5395 87.1977 45.7253C86.911 44.3592 86.051 43.9745 84.9368 43.9745C84.0065 43.9745 83.033 44.6157 82.6381 45.6417C82.2433 46.6677 82.2811 48.3851 82.2811 49.5394V60.3235C82.2811 60.7305 81.9512 61.0595 81.5402 61.0595H77.7C77.3106 61.0317 77.0077 60.7138 77.0077 60.3235L77.0023 49.5394C77.0023 47.2699 77.3646 43.9298 74.6333 43.9298C71.8694 43.9298 71.9776 47.1863 71.9776 49.5394V60.3235C71.9776 60.7305 71.6477 61.0595 71.2366 61.0595" fill="black"/>
<path fill-rule="evenodd" clip-rule="evenodd" d="M142.312 38.8779C148.018 38.8779 151.107 43.9299 151.107 50.3535C151.107 56.5597 147.694 61.4833 142.312 61.4833C136.709 61.4833 133.658 56.4314 133.658 50.136C133.658 43.8016 136.747 38.8779 142.312 38.8779V38.8779ZM142.345 43.0321C139.51 43.0321 139.332 47.0134 139.332 49.4948C139.332 51.9817 139.294 57.2901 142.312 57.2901C145.292 57.2901 145.433 53.0077 145.433 50.3981C145.433 48.6807 145.363 46.6287 144.86 45.0005C144.427 43.5841 143.567 43.0321 142.345 43.0321" fill="black"/>
<path fill-rule="evenodd" clip-rule="evenodd" d="M158.506 61.0595H154.677C154.293 61.0317 153.984 60.7138 153.984 60.3235L153.979 39.9708C154.011 39.5972 154.331 39.3073 154.72 39.3073H158.284C158.62 39.324 158.896 39.5582 158.971 39.876V42.9875H159.042C160.118 40.205 161.627 38.8779 164.283 38.8779C166.008 38.8779 167.69 39.5192 168.772 41.2756C169.778 42.9039 169.778 45.6417 169.778 47.6101V60.4183C169.735 60.7752 169.415 61.0595 169.037 61.0595H165.18C164.829 61.0317 164.537 60.764 164.499 60.4183V49.3665C164.499 47.1417 164.748 43.8852 162.092 43.8852C161.156 43.8852 160.296 44.5321 159.869 45.5135C159.328 46.7569 159.258 47.9948 159.258 49.3665V60.3235C159.252 60.7305 158.917 61.0595 158.506 61.0595" fill="black"/>
<path fill-rule="evenodd" clip-rule="evenodd" d="M107.269 51.3403C107.269 52.8849 107.307 54.1729 106.55 55.5447C105.939 56.6599 104.965 57.3457 103.889 57.3457C102.412 57.3457 101.547 56.1859 101.547 54.4741C101.547 51.095 104.484 50.4816 107.269 50.4816V51.3403V51.3403ZM111.147 61.0036C110.893 61.2378 110.525 61.2546 110.239 61.0984C108.962 60.0055 108.73 59.4981 108.032 58.4554C105.922 60.6746 104.424 61.3382 101.693 61.3382C98.453 61.3382 95.938 59.2806 95.938 55.1599C95.938 51.9425 97.6255 49.7511 100.038 48.6805C102.126 47.7326 105.041 47.5653 107.269 47.3032V46.7902C107.269 45.8479 107.34 44.7327 106.799 43.9186C106.334 43.1881 105.436 42.887 104.641 42.887C103.175 42.887 101.871 43.662 101.552 45.268C101.487 45.6248 101.233 45.9761 100.882 45.9928L97.1549 45.5802C96.8412 45.5077 96.4897 45.2457 96.5816 44.7494C97.4362 40.0878 101.525 38.6826 105.181 38.6826C107.053 38.6826 109.498 39.1956 110.974 40.6565C112.846 42.4576 112.667 44.8609 112.667 47.4761V53.6544C112.667 55.5112 113.413 56.3253 114.117 57.329C114.36 57.6859 114.414 58.1152 114.1 58.3829C113.316 59.0576 111.921 60.3122 111.153 61.0148L111.147 61.0036" fill="black"/>
<path fill-rule="evenodd" clip-rule="evenodd" d="M56.8547 51.3403C56.8547 52.8849 56.8925 54.1729 56.1353 55.5447C55.5241 56.6599 54.556 57.3457 53.4742 57.3457C51.9976 57.3457 51.1377 56.1859 51.1377 54.4741C51.1377 51.095 54.0746 50.4816 56.8547 50.4816V51.3403V51.3403ZM60.7327 61.0036C60.4785 61.2378 60.1107 61.2546 59.824 61.0984C58.5476 60.0055 58.3204 59.4981 57.6173 58.4554C55.5079 60.6746 54.0151 61.3382 51.2783 61.3382C48.0439 61.3382 45.5234 59.2806 45.5234 55.1599C45.5234 51.9425 47.2164 49.7511 49.6232 48.6805C51.711 47.7326 54.6263 47.5653 56.8547 47.3032V46.7902C56.8547 45.8479 56.925 44.7327 56.3895 43.9186C55.9189 43.1881 55.0211 42.887 54.2314 42.887C52.7657 42.887 51.4568 43.662 51.1377 45.268C51.0728 45.6248 50.8185 45.9761 50.4724 45.9928L46.7404 45.5802C46.4267 45.5077 46.0805 45.2457 46.1671 44.7494C47.0271 40.0878 51.1106 38.6826 54.7669 38.6826C56.6383 38.6826 59.083 39.1956 60.5596 40.6565C62.431 42.4576 62.2525 44.8609 62.2525 47.4761V53.6544C62.2525 55.5112 62.9989 56.3253 63.7021 57.329C63.9509 57.6859 64.0049 58.1152 63.6912 58.3829C62.907 59.0576 61.5115 60.3122 60.7435 61.0148L60.7327 61.0036" fill="black"/>
</g>
<defs>
<clipPath id="clip0_714_9603">
<rect width="124.254" height="38.6032" fill="white" transform="translate(45.5234 38.6826)"/>
</clipPath>
</defs>
</svg>
