<svg width="213" height="116" viewBox="0 0 213 116" fill="none" xmlns="http://www.w3.org/2000/svg">
<g clip-path="url(#clip0_714_9586)">
<path fill-rule="evenodd" clip-rule="evenodd" d="M68.0009 45.4395H47.9165V55.5238H57.799C58.1511 55.5238 58.4367 55.8098 58.4367 56.1623V65.9221H68.6386V46.0792C68.6387 45.9952 68.6224 45.9121 68.5904 45.8345C68.5584 45.7569 68.5115 45.6863 68.4522 45.6269C68.393 45.5675 68.3226 45.5203 68.2452 45.4882C68.1678 45.456 68.0847 45.4395 68.0009 45.4395V45.4395Z" fill="#8E75FF"/>
<path opacity="0.405" fill-rule="evenodd" clip-rule="evenodd" d="M47.9152 45.4395V55.5238H38.4932C38.4299 55.5236 38.368 55.5047 38.3155 55.4693C38.263 55.4339 38.2221 55.3837 38.1981 55.3251C38.1741 55.2664 38.1681 55.2019 38.1808 55.1398C38.1935 55.0777 38.2243 55.0208 38.2693 54.9762L47.9152 45.4395ZM58.9798 75.4694C58.9349 75.5135 58.878 75.5434 58.8163 75.5553C58.7545 75.5672 58.6906 75.5606 58.6326 75.5363C58.5746 75.5119 58.5251 75.471 58.4902 75.4186C58.4553 75.3662 58.4366 75.3047 58.4365 75.2417V65.9221H68.6384L58.9798 75.4682V75.4694Z" fill="#8E75FF"/>
<path opacity="0.405" d="M47.915 55.5239H58.1181C58.293 55.5239 58.4364 55.6664 58.4364 55.8426V65.9223H48.5539C48.3848 65.9223 48.2226 65.855 48.103 65.7352C47.9834 65.6155 47.9162 65.453 47.9162 65.2837V55.5239H47.915Z" fill="#8E75FF"/>
<path fill-rule="evenodd" clip-rule="evenodd" d="M171.514 44.8034C172.085 45.3684 172.757 45.6498 173.534 45.6498C174.335 45.6498 175.02 45.3684 175.59 44.8034C176.16 44.2383 176.445 43.5729 176.445 42.8036C176.445 42.0354 176.16 41.3629 175.59 40.7862C175.325 40.5081 175.006 40.2878 174.652 40.1389C174.298 39.9901 173.917 39.9159 173.534 39.9212C172.757 39.9212 172.085 40.2095 171.514 40.7851C170.944 41.3629 170.66 42.0342 170.66 42.8047C170.66 43.5729 170.944 44.2383 171.514 44.8034V44.8034ZM109.657 52.1722C109.657 52.2306 109.608 52.2796 109.549 52.2796H105.544V59.7746C105.544 60.3991 105.703 60.8556 106.018 61.144C106.332 61.4323 106.794 61.5934 107.4 61.6296C107.955 61.6635 108.631 61.6611 109.43 61.6238L109.543 61.6179C109.557 61.6171 109.572 61.6193 109.586 61.6244C109.599 61.6294 109.612 61.6372 109.623 61.6473C109.633 61.6573 109.642 61.6694 109.647 61.6828C109.653 61.6963 109.656 61.7107 109.656 61.7253V65.7308C109.656 65.7574 109.646 65.7831 109.629 65.8029C109.611 65.8227 109.587 65.8353 109.56 65.8382L109.487 65.8464C106.351 66.1768 104.132 65.8697 102.834 64.9264C101.512 63.9656 100.852 62.2483 100.852 59.7746V52.2796H97.7928C97.7644 52.2796 97.7371 52.2683 97.717 52.2482C97.6968 52.228 97.6856 52.2007 97.6856 52.1722V47.9193C97.6856 47.8609 97.7333 47.8118 97.7928 47.8118H100.851V44.8384C100.851 44.752 100.902 44.675 100.98 44.6399L105.394 42.7172C105.41 42.7097 105.428 42.7065 105.446 42.7079C105.464 42.7092 105.481 42.715 105.496 42.7248C105.511 42.7345 105.524 42.7479 105.532 42.7637C105.541 42.7795 105.545 42.7972 105.545 42.8152V47.8118H109.549C109.607 47.8118 109.656 47.8597 109.656 47.9193V52.1722H109.657ZM118.167 50.9114C118.603 49.758 119.325 48.8929 120.331 48.3162C121.324 47.7503 122.446 47.4526 123.588 47.4523C123.648 47.4523 123.697 47.5001 123.697 47.5608V52.4466C123.697 52.471 123.692 52.4952 123.682 52.5175C123.672 52.5399 123.657 52.5599 123.639 52.5762C123.621 52.5926 123.6 52.605 123.577 52.6127C123.553 52.6203 123.529 52.623 123.505 52.6205C122.151 52.4991 120.935 52.7945 119.858 53.5054C118.731 54.2491 118.167 55.4866 118.167 57.2167V65.7203C118.167 65.7345 118.165 65.7486 118.159 65.7617C118.154 65.7748 118.146 65.7867 118.136 65.7967C118.126 65.8066 118.114 65.8145 118.1 65.8199C118.087 65.8252 118.073 65.8279 118.059 65.8277H113.58C113.552 65.8277 113.524 65.8164 113.504 65.7962C113.484 65.7761 113.473 65.7488 113.473 65.7203V47.9181C113.473 47.8597 113.521 47.8107 113.58 47.8107H118.059C118.117 47.8107 118.166 47.8585 118.166 47.9181V50.9091L118.167 50.9114ZM140.36 47.8118C140.345 47.8117 140.331 47.8144 140.318 47.8197C140.305 47.825 140.293 47.8329 140.283 47.8429C140.273 47.8529 140.265 47.8648 140.26 47.8779C140.254 47.891 140.251 47.905 140.251 47.9193V49.9389C138.845 48.1843 136.868 47.3075 134.321 47.3075C131.896 47.3075 129.815 48.2263 128.081 50.0638C126.347 51.9014 125.479 54.1534 125.479 56.8198C125.479 59.4862 126.347 61.7382 128.081 63.5757C129.815 65.4133 131.896 66.332 134.321 66.332C136.868 66.332 138.844 65.4553 140.251 63.7018V65.7203C140.251 65.7787 140.3 65.8277 140.36 65.8277H144.837C144.897 65.8277 144.946 65.7798 144.946 65.7203V47.9181C144.946 47.9039 144.943 47.8898 144.938 47.8767C144.932 47.8636 144.924 47.8517 144.914 47.8417C144.904 47.8317 144.892 47.8238 144.879 47.8185C144.866 47.8132 144.852 47.8105 144.837 47.8107H140.36V47.8118ZM131.593 60.4949C132.538 61.4323 133.738 61.9005 135.195 61.9005C136.65 61.9005 137.857 61.4253 138.815 60.4762C139.773 59.5282 140.251 58.3094 140.251 56.8198C140.251 55.3301 139.773 54.1113 138.815 53.1622C137.857 52.2142 136.65 51.7391 135.194 51.7391C133.739 51.7391 132.538 52.2142 131.592 53.1634C130.647 54.1113 130.173 55.3301 130.173 56.8198C130.173 58.3094 130.646 59.5341 131.593 60.4949V60.4949ZM165.809 50.0638C164.074 48.2263 161.982 47.3075 159.532 47.3075C156.985 47.3075 155.021 48.1843 153.638 49.9377V47.9193C153.638 47.8908 153.627 47.8634 153.607 47.8433C153.587 47.8232 153.559 47.8118 153.531 47.8118H149.052C149.023 47.8118 148.996 47.8232 148.976 47.8433C148.956 47.8634 148.945 47.8908 148.945 47.9193V72.9257C148.945 72.9852 148.992 73.0343 149.052 73.0343H153.531C153.589 73.0343 153.638 72.9852 153.638 72.9257V63.7018C155.021 65.4553 156.985 66.332 159.532 66.332C161.982 66.332 164.074 65.4133 165.809 63.5757C167.543 61.7382 168.41 59.4862 168.41 56.8198C168.41 54.1534 167.543 51.9014 165.809 50.0638V50.0638ZM155.057 60.4949C156.004 61.4323 157.203 61.9005 158.659 61.9005C160.114 61.9005 161.321 61.4253 162.279 60.4762C163.237 59.5282 163.716 58.3094 163.716 56.8198C163.716 55.3301 163.237 54.1113 162.279 53.1622C161.321 52.2142 160.114 51.7391 158.659 51.7391C157.203 51.7391 156.004 52.2142 155.057 53.1634C154.111 54.1113 153.638 55.3301 153.638 56.8198C153.638 58.3094 154.111 59.5341 155.057 60.4949V60.4949ZM171.313 65.8277C171.284 65.8277 171.257 65.8164 171.237 65.7962C171.217 65.7761 171.206 65.7488 171.206 65.7203V47.9181C171.206 47.8597 171.253 47.8107 171.313 47.8107H175.792C175.851 47.8107 175.899 47.8585 175.899 47.9181V65.7215C175.899 65.75 175.888 65.7773 175.868 65.7974C175.848 65.8176 175.82 65.8289 175.792 65.8289H171.313V65.8277ZM87.6259 54.0997C86.9823 53.7996 86.6617 53.4085 86.6617 52.9287C86.6617 52.4722 86.8611 52.1115 87.2621 51.8477C87.662 51.5838 88.1656 51.4507 88.7718 51.4507C89.9342 51.4507 90.812 51.9002 91.4066 52.798C91.4264 52.8284 91.4563 52.851 91.491 52.8617C91.5257 52.8723 91.5631 52.8704 91.5966 52.8563L95.558 51.1204C95.5717 51.1142 95.5839 51.1052 95.5939 51.0941C95.604 51.0829 95.6115 51.0697 95.6161 51.0554C95.6208 51.0411 95.6223 51.026 95.6207 51.011C95.6191 50.9961 95.6144 50.9816 95.6069 50.9686C95.5613 50.8925 95.5147 50.817 95.467 50.7421C94.7897 49.6856 93.9119 48.8976 92.8102 48.2987C91.5977 47.6379 90.2512 47.3075 88.7718 47.3075C86.8063 47.3075 85.1637 47.8177 83.8405 48.8392C82.5197 49.8595 81.8587 51.2593 81.8587 53.0361C81.8587 54.2141 82.1804 55.1924 82.8228 55.9734C83.4436 56.738 84.2523 57.3278 85.1695 57.6848C86.0905 58.0444 87.0127 58.3456 87.9348 58.5849C88.8558 58.8254 89.6392 59.0963 90.2816 59.3963C90.9239 59.6963 91.2457 60.0863 91.2457 60.5672C91.2457 61.6004 90.4086 62.1164 88.7357 62.1164C87.1421 62.1164 86.038 61.5327 85.4237 60.3676C85.399 60.3185 85.3566 60.2807 85.305 60.2618C85.2535 60.2429 85.1967 60.2444 85.1462 60.266L81.1965 61.9997C81.1833 62.0055 81.1714 62.0139 81.1616 62.0243C81.1517 62.0348 81.144 62.0472 81.139 62.0607C81.134 62.0742 81.1318 62.0886 81.1324 62.103C81.1331 62.1173 81.1366 62.1315 81.1429 62.1444L81.1872 62.2343C82.5675 64.9661 85.0833 66.332 88.7357 66.332C90.8213 66.332 92.5619 65.8335 93.9562 64.8377C95.3516 63.8396 96.0488 62.4165 96.0488 60.5672C96.0488 59.3414 95.727 58.3211 95.0847 57.5039C94.479 56.7153 93.6666 56.1107 92.7379 55.7574C91.834 55.4146 90.9106 55.1258 89.9726 54.8923C89.0505 54.6635 88.2682 54.3997 87.6259 54.0985V54.0997Z" fill="#1D1B84"/>
</g>
<defs>
<clipPath id="clip0_714_9586">
<rect width="138.73" height="36.1905" fill="white" transform="translate(37.7144 39.9209)"/>
</clipPath>
</defs>
</svg>
