<svg width="214" height="116" viewBox="0 0 214 116" fill="none" xmlns="http://www.w3.org/2000/svg">
<g clip-path="url(#clip0_714_9605)">
<path d="M86.1834 53.1259V55.0402H86.2421C86.9336 54.0153 88.0815 52.8083 90.626 52.8083C92.6055 52.8083 94.124 53.812 94.7748 55.3281H94.8335C95.3894 54.5616 96.0267 53.9814 96.7407 53.5706C97.5859 53.0835 98.5259 52.804 99.71 52.804C102.39 52.804 104.763 54.5404 104.763 58.9195V67.2245H100.677V59.4997C100.677 57.2805 99.8727 55.9973 98.2005 55.9973C96.9757 55.9973 96.0854 56.7681 95.7465 57.7167C95.629 58.0428 95.5747 58.4875 95.5747 58.8602V67.2287H91.4892V59.1863C91.4892 57.3017 90.7163 55.9931 89.0668 55.9931C87.7471 55.9931 86.92 56.9671 86.5811 57.8014C86.4365 58.1572 86.3913 58.568 86.3913 58.9534V67.2245H82.3012V53.1259H86.1834ZM125.85 53.1259V55.7855H125.963C126.714 53.7527 128.494 52.8083 130.058 52.8083C130.451 52.8083 130.668 52.8379 130.984 52.8972V56.5902C130.609 56.5394 130.261 56.4886 129.773 56.4886C128.002 56.4886 126.768 57.4542 126.456 58.9661C126.388 59.2795 126.366 59.6183 126.366 60.0079V67.2287H122.172V53.1259H125.85ZM136.679 48.4546V52.893H140.222V56.4843H136.679V61.7824C136.679 63.4976 137.144 64.3277 138.527 64.3277C139.178 64.3277 139.657 64.2515 140.073 64.1541L140.127 67.1313C139.571 67.3262 138.387 67.5379 137.185 67.5379C135.77 67.5379 134.591 67.0763 133.872 66.3606C133.05 65.5432 132.67 64.2049 132.67 62.2991V48.4546H136.679ZM79.454 67.2245H75.3865V48.4546H79.454V67.2245ZM68.6073 62.189C68.6073 62.4473 68.5848 62.7184 68.5079 62.9513C68.1916 63.9296 67.1114 64.7555 65.7646 64.7555C64.6393 64.7555 63.7445 64.1583 63.7445 62.892C63.7445 60.9566 66.0222 60.4187 68.6119 60.4314V62.189H68.6073ZM72.6703 58.8136C72.6703 55.6161 71.2151 52.8083 66.2934 52.8083C63.767 52.8083 61.7604 53.4732 60.6667 54.0661L61.4667 56.6325C62.4655 56.0396 64.0608 55.5526 65.5703 55.5526C68.0695 55.5484 68.4763 56.8782 68.4763 57.7294V57.9327C63.0304 57.9243 59.5911 59.6903 59.5911 63.2901C59.5911 65.4881 61.3401 67.5464 64.3862 67.5464C66.2618 67.5464 67.8255 66.8476 68.7655 65.7253H68.8559C68.8559 65.7253 69.4796 68.1605 72.9053 67.2287C72.7245 66.2123 72.6658 65.1324 72.6658 63.8322V58.8136H72.6703ZM39.1588 48.4546C39.5791 50.4408 40.7722 56.209 40.7722 56.209C41.2739 58.5807 41.7349 61.0667 42.0829 63.0318H42.1461C42.4851 60.9439 43.0184 58.9661 43.5878 56.5182L45.599 48.4546H50.0506L51.9307 56.7257C52.4233 59.0254 52.8165 60.7999 53.1283 62.9386H53.1871C53.526 60.7787 53.9689 58.9322 54.4525 56.569L56.2603 48.4546H60.5311L55.2389 67.2245C51.8674 67.9148 50.5749 66.6443 50.1139 64.6284C49.6529 62.6083 48.749 58.767 48.749 58.767C48.2835 56.6622 47.922 55.1799 47.6689 53.02H47.6056C47.244 55.1587 46.8644 56.658 46.304 58.7628L44.085 67.2287C40.6412 67.8725 39.4481 66.9196 38.7882 64.3319C38.2188 62.117 34.6665 48.4588 34.6665 48.4588H39.1588V48.4546ZM115.392 62.189C115.392 62.4473 115.37 62.7184 115.293 62.9513C114.977 63.9296 113.896 64.7555 112.55 64.7555C111.424 64.7555 110.529 64.1583 110.529 62.892C110.529 60.9566 112.807 60.4187 115.397 60.4314V62.189H115.392ZM119.455 58.8136C119.455 55.6161 118 52.8083 113.078 52.8083C110.552 52.8083 108.545 53.4732 107.452 54.0661L108.252 56.6325C109.25 56.0396 110.846 55.5526 112.355 55.5526C114.85 55.5484 115.261 56.8782 115.261 57.7294V57.9327C109.82 57.9243 106.381 59.6903 106.381 63.2901C106.381 65.4881 108.134 67.5464 111.176 67.5464C113.047 67.5464 114.615 66.8476 115.551 65.7253H115.645C115.645 65.7253 116.269 68.1605 119.695 67.2287C119.514 66.2123 119.455 65.1324 119.455 63.8322V58.8136Z" fill="#041E42"/>
<path d="M156.71 60.7602C157.111 61.4457 157.084 62.2108 156.656 62.5601L149.259 67.6502C148.489 68.088 147.336 67.5574 146.682 66.4474C146.025 65.3329 146.142 64.0903 146.912 63.6524L155.102 59.9112C155.616 59.7166 156.309 60.0748 156.71 60.7602ZM166.445 60.7602C166.851 60.0748 167.54 59.721 168.054 59.9067L176.248 63.648C177.018 64.0858 177.131 65.3285 176.478 66.4429C175.82 67.5529 174.662 68.0792 173.897 67.6458L166.499 62.5557C166.076 62.2108 166.044 61.4413 166.445 60.7602ZM161.576 63.5198C162.382 63.5198 163.044 63.9266 163.134 64.4617L163.932 73.2976C163.932 74.1732 162.891 74.8896 161.58 74.8896C160.274 74.8896 159.229 74.1732 159.229 73.2976L160.021 64.4617C160.112 63.9266 160.774 63.5198 161.576 63.5198ZM166.499 53.4457L173.897 48.3512C174.662 47.9134 175.82 48.4396 176.478 49.554C177.131 50.6685 177.018 51.9112 176.248 52.349L168.054 56.0947C167.54 56.2804 166.846 55.9266 166.445 55.2412C166.044 54.5557 166.076 53.7906 166.499 53.4457ZM155.102 56.0947L146.912 52.349C146.146 51.9112 146.029 50.6685 146.682 49.554C147.336 48.4396 148.493 47.9134 149.259 48.3512L156.656 53.4457C157.084 53.7862 157.111 54.5557 156.71 55.2412C156.309 55.9266 155.616 56.2804 155.102 56.0947ZM160.021 51.5397L159.229 42.7039C159.229 41.8282 160.269 41.1118 161.58 41.1118C162.891 41.1118 163.932 41.8282 163.932 42.7039L163.134 51.5397C163.044 52.0704 162.382 52.4816 161.576 52.4816C160.774 52.4816 160.112 52.0704 160.021 51.5397ZM178.478 67.6149V67.3937H178.681C178.748 67.3937 178.793 67.438 178.793 67.5043C178.793 67.5662 178.748 67.6149 178.681 67.6149H178.478ZM178.311 68.0173C178.311 68.0394 178.329 68.0615 178.356 68.0615H178.442C178.464 68.0615 178.487 68.0394 178.487 68.0173V67.7652H178.627L178.739 68.0306C178.748 68.0482 178.762 68.0615 178.78 68.0615H178.883C178.915 68.0615 178.937 68.0306 178.924 67.9996C178.883 67.92 178.843 67.836 178.802 67.752C178.87 67.7298 178.974 67.6635 178.974 67.5043C178.974 67.3363 178.834 67.239 178.694 67.239H178.356C178.334 67.239 178.311 67.2611 178.311 67.2832V68.0173ZM177.946 67.6502C177.946 67.292 178.244 67.0002 178.609 67.0002C178.974 67.0002 179.271 67.2876 179.271 67.6502C179.271 68.0084 178.978 68.3003 178.609 68.3003C178.239 68.3003 177.946 68.0084 177.946 67.6502ZM177.789 67.6502C177.789 68.0925 178.154 68.4551 178.609 68.4551C179.059 68.4551 179.429 68.0925 179.429 67.6502C179.429 67.208 179.059 66.8454 178.609 66.8454C178.154 66.8454 177.789 67.208 177.789 67.6502Z" fill="#FFC124"/>
</g>
<defs>
<clipPath id="clip0_714_9605">
<rect width="144.762" height="33.7778" fill="white" transform="translate(34.6665 41.1118)"/>
</clipPath>
</defs>
</svg>
