<svg width="214" height="116" viewBox="0 0 214 116" fill="none" xmlns="http://www.w3.org/2000/svg">
<g clip-path="url(#clip0_714_9593)">
<path d="M54.0761 45.1045V55.9934H44.1547V45.1045H39.4443V71.0974H44.1547V60.562H54.0761V71.0974H58.7865V45.1045H54.0761Z" fill="#33475B"/>
<path d="M73.8617 62.6952C73.8617 63.7369 73.4512 64.7359 72.7204 65.4725C71.9896 66.2091 70.9984 66.623 69.9649 66.623C68.9314 66.623 67.9403 66.2091 67.2095 65.4725C66.4787 64.7359 66.0681 63.7369 66.0681 62.6952V51.562H61.6001V62.6952C61.6001 64.9291 62.4805 67.0716 64.0477 68.6512C65.6149 70.2309 67.7405 71.1183 69.9568 71.1183C72.1732 71.1183 74.2988 70.2309 75.866 68.6512C77.4332 67.0716 78.3136 64.9291 78.3136 62.6952V51.562H73.8617V62.6952Z" fill="#33475B"/>
<path d="M106.966 52.7088C106.966 50.4268 108.463 49.7034 110.104 49.7034C111.427 49.7034 113.174 50.7176 114.316 51.9482L117.243 48.4728C115.782 46.4816 112.818 45.1045 110.393 45.1045C105.546 45.1045 102.041 47.9657 102.041 52.7088C102.041 61.5088 112.712 58.7174 112.712 63.6419C112.712 65.1609 111.249 66.5031 109.574 66.5031C106.931 66.5031 106.075 65.2005 104.861 63.8234L101.614 67.2266C103.691 69.797 106.253 71.102 109.322 71.102C113.926 71.102 117.63 68.2059 117.63 63.6791C117.63 53.9091 106.959 56.9448 106.959 52.7088" fill="#33475B"/>
<path d="M172.984 66.945C170.344 66.945 169.594 65.7935 169.594 64.0303V56.2259H173.697V52.2714H169.594V47.0537L165.063 49.1031V65.0003C165.063 69.0665 167.847 71.1159 171.664 71.1159C172.263 71.1268 172.861 71.0785 173.45 70.9716L174.556 66.8706C174.057 66.9054 173.485 66.9403 172.984 66.9403" fill="#33475B"/>
<path d="M90.8684 51.6922C88.6551 51.6922 87.1112 52.3389 85.618 53.816V45.2603H81.1431V61.1179C81.1431 67.0544 85.4011 71.1205 90.1852 71.1205C95.4933 71.1205 100.162 66.9822 100.162 61.4087C100.162 55.9049 95.8649 51.6945 90.8684 51.6945V51.6922ZM90.8407 66.5821C89.8365 66.5821 88.8548 66.282 88.0199 65.7197C87.1849 65.1573 86.5342 64.3581 86.1499 63.4229C85.7656 62.4878 85.665 61.4588 85.861 60.4661C86.0569 59.4734 86.5404 58.5615 87.2505 57.8458C87.9606 57.1301 88.8653 56.6427 89.8502 56.4452C90.835 56.2478 91.8559 56.3491 92.7837 56.7364C93.7114 57.1238 94.5044 57.7797 95.0623 58.6213C95.6202 59.4629 95.918 60.4523 95.918 61.4645C95.918 62.8218 95.383 64.1235 94.4309 65.0832C93.4787 66.043 92.1873 66.5821 90.8407 66.5821Z" fill="#33475B"/>
<path d="M139.457 61.1713C139.457 55.5885 134.798 51.4595 129.481 51.4595C124.696 51.4595 120.438 55.5257 120.438 61.4621V77.3291H124.913V68.7617C126.404 70.2365 127.951 70.8855 130.161 70.8855C135.158 70.8855 139.455 66.6774 139.455 61.1713H139.457ZM135.22 61.1155C135.22 62.1277 134.922 63.1171 134.365 63.9587C133.807 64.8003 133.014 65.4562 132.086 65.8436C131.158 66.2309 130.137 66.3322 129.152 66.1348C128.168 65.9373 127.263 65.4499 126.553 64.7342C125.843 64.0185 125.359 63.1066 125.163 62.1139C124.967 61.1212 125.068 60.0922 125.452 59.1571C125.836 58.2219 126.487 57.4227 127.322 56.8603C128.157 56.298 129.139 55.9979 130.143 55.9979C131.49 55.9979 132.781 56.537 133.733 57.4968C134.685 58.4565 135.22 59.7582 135.22 61.1155Z" fill="#33475B"/>
<path d="M153.914 51.2408V46.7094C154.508 46.4296 155.012 45.9854 155.365 45.4286C155.718 44.8718 155.908 44.2253 155.911 43.5644V43.4597C155.911 42.5343 155.546 41.6467 154.897 40.9924C154.248 40.338 153.367 39.9704 152.449 39.9704H152.345C151.427 39.9704 150.546 40.338 149.897 40.9924C149.248 41.6467 148.883 42.5343 148.883 43.4597V43.5644C148.886 44.2253 149.076 44.8718 149.429 45.4286C149.782 45.9854 150.285 46.4296 150.88 46.7094V51.2408C149.172 51.5041 147.564 52.2175 146.218 53.3088L133.889 43.6295C133.976 43.3103 134.023 42.9812 134.028 42.6502C134.029 41.8725 133.801 41.112 133.374 40.4647C132.946 39.8173 132.338 39.3124 131.626 39.0136C130.913 38.7149 130.129 38.6357 129.372 38.7863C128.615 38.9368 127.92 39.3102 127.374 39.8592C126.827 40.4083 126.455 41.1083 126.303 41.8708C126.151 42.6333 126.228 43.4239 126.522 44.1428C126.816 44.8616 127.315 45.4763 127.956 45.9092C128.597 46.342 129.351 46.5735 130.123 46.5744C130.797 46.5714 131.459 46.3901 132.043 46.0487L144.184 55.5698C143.093 57.2307 142.524 59.1843 142.551 61.176C142.578 63.1677 143.199 65.1051 144.334 66.7356L140.642 70.4575C140.343 70.3614 140.032 70.3104 139.719 70.3063C139.085 70.3067 138.466 70.4964 137.94 70.8514C137.414 71.2063 137.003 71.7106 136.761 72.3005C136.519 72.8904 136.456 73.5394 136.579 74.1655C136.703 74.7916 137.008 75.3667 137.456 75.8181C137.904 76.2695 138.474 76.577 139.096 76.7016C139.717 76.8263 140.361 76.7625 140.946 76.5184C141.531 76.2744 142.031 75.8609 142.384 75.3303C142.736 74.7997 142.924 74.1757 142.924 73.5373C142.92 73.2214 142.87 72.9078 142.774 72.6069L146.428 68.9245C147.619 69.8485 149.004 70.4854 150.477 70.7865C151.951 71.0876 153.473 71.0448 154.927 70.6615C156.381 70.2782 157.729 69.5644 158.867 68.575C160.006 67.5855 160.904 66.3466 161.494 64.953C162.084 63.5595 162.35 62.0483 162.271 60.5353C162.192 59.0223 161.771 57.5475 161.039 56.224C160.308 54.9005 159.285 53.7633 158.05 52.8995C156.815 52.0358 155.4 51.4684 153.914 51.2408V51.2408ZM152.4 66.1424C151.401 66.1415 150.424 65.842 149.594 65.2817C148.763 64.7215 148.116 63.9257 147.734 62.9949C147.353 62.064 147.253 61.04 147.448 60.0522C147.644 59.0643 148.125 58.157 148.832 57.4449C149.539 56.7329 150.439 56.2479 151.419 56.0515C152.399 55.855 153.415 55.9559 154.339 56.3412C155.262 56.7266 156.051 57.3792 156.607 58.2165C157.162 59.0539 157.459 60.0384 157.459 61.0457C157.459 62.3968 156.927 63.6926 155.979 64.648C155.031 65.6033 153.745 66.1401 152.405 66.1401" fill="#FF7A59"/>
</g>
<defs>
<clipPath id="clip0_714_9593">
<rect width="135.111" height="38.6032" fill="white" transform="translate(39.4443 38.7144)"/>
</clipPath>
</defs>
</svg>
