<svg width="214" height="116" viewBox="0 0 214 116" fill="none" xmlns="http://www.w3.org/2000/svg">
<g clip-path="url(#clip0_714_9575)">
<path d="M79.841 66.0421C79.6461 65.5716 79.4634 65.077 79.2684 64.6548L78.367 62.6402L78.3305 62.604C75.6505 56.8135 72.7877 50.9265 69.7545 45.1361L69.6327 44.8948C69.3281 44.3278 69.0236 43.7005 68.7069 43.1215C68.317 42.4338 67.9394 41.698 67.3181 40.9983C66.7126 40.2662 65.9504 39.6764 65.0867 39.2713C64.223 38.8663 63.2793 38.6562 62.3236 38.6562C61.368 38.6562 60.4242 38.8663 59.5605 39.2713C58.6968 39.6764 57.9347 40.2662 57.3291 40.9983C56.7566 41.698 56.3302 42.4338 55.9404 43.1215C55.6358 43.7488 55.3313 44.364 55.0146 44.931L54.8927 45.1723C51.9082 50.9627 48.9968 56.8497 46.3168 62.6402L46.2437 62.7126C45.9757 63.3399 45.659 63.9913 45.3544 64.691C45.1595 65.1132 44.9646 65.5716 44.7697 66.0783C44.2435 67.405 44.0754 68.8446 44.2821 70.2553C44.4889 71.6659 45.0632 72.9988 45.9485 74.1227C46.8338 75.2466 47.9995 76.1227 49.3308 76.6645C50.6621 77.2064 52.113 77.3954 53.5406 77.2129C54.9092 77.0345 56.227 76.5831 57.4144 75.8859C58.998 75.0053 60.5207 73.7265 62.2262 71.8808C63.9316 73.7265 65.4909 75.0053 67.038 75.898C68.5257 76.7627 70.2105 77.24 71.935 77.2853C73.932 77.2935 75.8646 76.5859 77.376 75.2933C78.8873 74.0006 79.8754 72.21 80.1577 70.2523C80.484 68.8454 80.3736 67.3737 79.841 66.03V66.0421ZM62.348 68.0446C60.2527 65.3907 58.8884 62.9538 58.4255 60.8669C58.2337 60.0935 58.1923 59.2911 58.3036 58.5024C58.3889 57.8872 58.6204 57.3443 58.9371 56.8859C59.668 55.8364 60.9471 55.185 62.348 55.185C63.0133 55.1648 63.6732 55.3086 64.2685 55.6034C64.8639 55.8982 65.376 56.3347 65.7589 56.8738C66.0756 57.3564 66.3071 57.8872 66.3801 58.5024C66.502 59.2021 66.4532 60.0104 66.2583 60.8669C65.7954 62.9177 64.4311 65.3786 62.348 68.0446ZM77.8675 69.83C77.7291 70.824 77.3301 71.7647 76.7103 72.5584C76.0905 73.3521 75.2715 73.9712 74.3348 74.3538C73.409 74.7399 72.3858 74.8485 71.3868 74.7399C70.4123 74.6192 69.4378 74.3056 68.4389 73.7265C66.7803 72.7114 65.289 71.4502 64.0169 69.9869C66.5751 66.8504 68.1221 63.9913 68.7069 61.4459C68.987 60.2396 69.0236 59.1538 68.9018 58.1526C68.7497 57.2035 68.3923 56.2982 67.8541 55.4986C67.2397 54.6316 66.4195 53.9273 65.4658 53.4477C64.5121 52.9681 63.454 52.7279 62.3845 52.7481C60.1309 52.7481 58.1209 53.7856 56.9027 55.4865C56.3544 56.2841 56 57.1967 55.8673 58.1526C55.7089 59.1659 55.7455 60.2878 56.0622 61.4459C56.6469 63.9913 58.2305 66.8865 60.7522 70.011C59.5017 71.5022 58.0068 72.7746 56.3302 73.7748C55.3191 74.3538 54.3567 74.6554 53.3822 74.7761C51.8667 74.9683 50.3357 74.5604 49.1222 73.641C47.9087 72.7216 47.1106 71.3651 46.9015 69.8662C46.7797 68.9012 46.865 67.9361 47.2548 66.8504C47.3766 66.4643 47.5593 66.0783 47.7542 65.6199C48.0222 64.9926 48.339 64.3411 48.6435 63.6897L48.6922 63.6053C51.3235 57.851 54.1984 51.9761 57.1829 46.2218L57.3047 45.9805C57.6093 45.4015 57.9138 44.7862 58.2305 44.2072C58.5473 43.5919 58.8884 43.0008 59.3269 42.5183C59.7065 42.0696 60.1808 41.7087 60.7165 41.4611C61.2521 41.2135 61.836 41.0851 62.4272 41.0851C63.0183 41.0851 63.6022 41.2135 64.1379 41.4611C64.6735 41.7087 65.1478 42.0696 65.5274 42.5183C65.9538 43.0008 66.3071 43.5919 66.6238 44.2072C66.9283 44.7862 67.2329 45.4135 67.5496 45.9805L67.6714 46.2218C70.6438 51.9761 73.5187 57.851 76.1986 63.6053L76.2352 63.6415C76.5519 64.2688 76.8199 64.9685 77.1245 65.5716C77.3194 66.0421 77.5143 66.4161 77.6361 66.8142C77.8675 67.8999 77.9894 68.865 77.8675 69.83V69.83ZM94.8246 67.7792C93.9066 67.7925 92.9974 67.601 92.1644 67.2188C91.3314 66.8367 90.596 66.2737 90.0128 65.5716C88.7021 64.0757 88.0065 62.1469 88.0637 60.1672C88.0436 58.1444 88.7617 56.1824 90.0859 54.6421C90.6983 53.9311 91.4608 53.3617 92.3195 52.974C93.1782 52.5864 94.1123 52.3898 95.056 52.3983C95.944 52.3742 96.8235 52.5742 97.612 52.9794C98.4005 53.3845 99.0719 53.9816 99.5633 54.7145L99.6851 52.8205H103.242V67.3932H99.6729L99.5511 65.27C99.0445 66.0526 98.3444 66.6938 97.5171 67.133C96.6899 67.5722 95.763 67.7946 94.8246 67.7792V67.7792ZM95.7504 64.305C96.4569 64.305 97.0782 64.1119 97.6629 63.7621C98.1989 63.3761 98.6374 62.8694 98.9785 62.2542C99.2831 61.6389 99.4414 60.9031 99.4414 60.0827C99.4889 59.3703 99.3489 58.6578 99.035 58.015C98.7211 57.3721 98.2441 56.821 97.6507 56.4154C97.0805 56.0636 96.4222 55.8771 95.7504 55.8771C95.0786 55.8771 94.4202 56.0636 93.85 56.4154C93.314 56.8015 92.8755 57.3081 92.5344 57.9234C92.2122 58.6019 92.0538 59.3452 92.0715 60.0948C92.024 60.8073 92.164 61.5198 92.4779 62.1626C92.7918 62.8054 93.2688 63.3565 93.8622 63.7621C94.4347 64.1119 95.056 64.305 95.7504 64.305ZM109.333 48.8878C109.333 49.31 109.26 49.6961 109.065 50.0097C108.87 50.3113 108.602 50.5888 108.249 50.7818C107.896 50.9748 107.518 51.0472 107.128 51.0472C106.738 51.0472 106.348 50.9748 105.995 50.7818C105.661 50.5976 105.38 50.3318 105.179 50.0097C104.99 49.6661 104.898 49.2787 104.911 48.8878C104.911 48.4535 104.996 48.0675 105.179 47.7659C105.374 47.404 105.654 47.1869 105.995 46.9938C106.348 46.8008 106.726 46.7164 107.128 46.7164C107.516 46.7075 107.899 46.7985 108.241 46.9803C108.583 47.1622 108.871 47.4287 109.077 47.7538C109.254 48.1056 109.342 48.4948 109.333 48.8878V48.8878ZM105.191 67.345V52.7964H109.065V67.3691H105.179L105.191 67.345ZM119.42 56.6085V56.6567C119.237 56.5723 118.993 56.5361 118.81 56.4999C118.567 56.4516 118.372 56.4516 118.14 56.4516C117.056 56.4516 116.24 56.7653 115.704 57.4167C115.119 58.0802 114.851 59.0091 114.851 60.2034V67.357H110.965V52.7843H114.535L114.656 54.9919C115.046 54.2199 115.509 53.6408 116.167 53.2065C116.821 52.7846 117.592 52.5739 118.372 52.6034C118.652 52.6034 118.92 52.6275 119.152 52.6758C119.273 52.7119 119.346 52.7119 119.42 52.7481V56.6085V56.6085ZM120.979 67.345V46.8129H124.853V54.6542C125.401 53.9545 126.022 53.4116 126.802 52.9894C128.036 52.3901 129.438 52.2201 130.782 52.5069C132.126 52.7936 133.333 53.5203 134.208 54.5697C135.522 56.0687 136.218 58.0024 136.157 59.9862C136.177 62.009 135.459 63.971 134.135 65.5113C133.523 66.2223 132.76 66.7917 131.901 67.1794C131.043 67.567 130.109 67.7636 129.165 67.7551C128.277 67.7792 127.397 67.5792 126.609 67.1741C125.82 66.7689 125.149 66.1718 124.658 65.4389L124.536 67.3329L120.979 67.3691V67.345ZM128.471 64.305C129.165 64.305 129.786 64.1119 130.371 63.7621C130.907 63.3761 131.345 62.8694 131.687 62.2542C132.003 61.6389 132.149 60.9031 132.149 60.0827C132.149 59.2745 132.003 58.5386 131.687 57.9234C131.367 57.3301 130.917 56.815 130.371 56.4154C129.801 56.0636 129.142 55.8771 128.471 55.8771C127.799 55.8771 127.14 56.0636 126.57 56.4154C126.022 56.8015 125.596 57.3081 125.242 57.9234C124.92 58.6019 124.762 59.3452 124.78 60.0948C124.732 60.8073 124.872 61.5198 125.186 62.1626C125.5 62.8054 125.977 63.3565 126.57 63.7621C127.143 64.1119 127.764 64.305 128.471 64.305ZM137.619 67.357V52.7843H141.188L141.31 54.6783C141.759 53.9523 142.395 53.3581 143.153 52.9573C143.911 52.5564 144.764 52.3635 145.623 52.3983C146.604 52.3815 147.57 52.6518 148.397 53.1753C149.225 53.6988 149.878 54.4524 150.276 55.3418C150.702 56.2586 150.934 57.3926 150.934 58.6592V67.3932H147.048V59.1659C147.048 58.1526 146.816 57.3564 146.353 56.7653C145.89 56.1862 145.257 55.8726 144.453 55.8726C143.868 55.8726 143.357 55.9932 142.906 56.2586C142.48 56.5361 142.126 56.8859 141.858 57.3805C141.587 57.8805 141.453 58.4419 141.469 59.0091V67.357H137.619V67.357ZM152.871 67.357V46.8008H156.757V54.6421C157.283 53.9385 157.968 53.3661 158.756 52.9703C159.545 52.5746 160.416 52.3663 161.3 52.3621C162.218 52.3488 163.128 52.5403 163.961 52.9225C164.794 53.3047 165.529 53.8677 166.112 54.5697C167.416 56.0686 168.107 57.9964 168.049 59.9742C168.07 61.9971 167.352 63.9595 166.027 65.4992C165.414 66.2102 164.652 66.7796 163.793 67.1673C162.935 67.555 162 67.7515 161.057 67.7431C160.169 67.7671 159.289 67.5672 158.501 67.162C157.712 66.7568 157.041 66.1597 156.55 65.4269L156.44 67.3208L152.871 67.357V67.357ZM160.399 64.305C161.106 64.305 161.727 64.1119 162.299 63.7621C162.848 63.3761 163.274 62.8694 163.627 62.2542C163.932 61.6389 164.09 60.9031 164.09 60.0827C164.138 59.3703 163.997 58.6578 163.684 58.015C163.37 57.3721 162.893 56.821 162.299 56.4154C161.729 56.0636 161.071 55.8771 160.399 55.8771C159.727 55.8771 159.069 56.0636 158.499 56.4154C157.963 56.8015 157.524 57.3081 157.183 57.9234C156.843 58.5958 156.684 59.3436 156.72 60.0948C156.673 60.8073 156.813 61.5198 157.127 62.1626C157.44 62.8054 157.917 63.3565 158.511 63.7621C159.083 64.1119 159.668 64.305 160.399 64.305Z" fill="#FF385C"/>
</g>
<defs>
<clipPath id="clip0_714_9575">
<rect width="124.254" height="38.6032" fill="white" transform="translate(44.2222 38.6826)"/>
</clipPath>
</defs>
</svg>
