<svg width="213" height="116" viewBox="0 0 213 116" fill="none" xmlns="http://www.w3.org/2000/svg">
<path fill-rule="evenodd" clip-rule="evenodd" d="M126.019 48.7237L123.606 44.6462L119.324 46.6849L116.911 42.5954L112.629 44.6462L110.228 40.5446L105.945 42.5954L103.533 38.5059L99.2502 40.5567L96.8496 36.4551L92.555 38.5059L83.4712 68.0856L94.5093 71.4633C94.9251 70.1301 95.8041 68.9896 96.9874 68.2478C98.1707 67.5061 99.5803 67.2121 100.961 67.419C102.343 67.6259 103.604 68.32 104.518 69.3759C105.432 70.4318 105.939 71.7798 105.945 73.1764V73.297C105.97 73.8278 105.909 74.3586 105.752 74.8894L116.972 78.3275L126.019 48.7237V48.7237Z" fill="#D61920"/>
<path fill-rule="evenodd" clip-rule="evenodd" d="M92.941 65.6489C92.6619 65.6028 92.4087 65.4581 92.2272 65.2412C92.0457 65.0243 91.948 64.7495 91.9518 64.4667V49.9905C91.9502 49.8316 91.9803 49.674 92.0403 49.5269C92.1004 49.3799 92.1892 49.2462 92.3015 49.1339C92.4138 49.0215 92.5475 48.9327 92.6946 48.8727C92.8417 48.8126 92.9992 48.7825 93.1581 48.7841H103.617C104.233 48.7826 104.844 48.9024 105.414 49.1367C105.984 49.3711 106.502 49.7154 106.939 50.1501C107.376 50.5847 107.723 51.1011 107.96 51.6699C108.197 52.2386 108.32 52.8485 108.322 53.4648V64.4667C108.322 64.6444 108.282 64.8198 108.206 64.9804C108.13 65.141 108.02 65.2828 107.882 65.3958C107.745 65.5087 107.585 65.59 107.413 65.6337C107.241 65.6775 107.061 65.6827 106.886 65.6489C106.61 65.6002 106.359 65.4544 106.18 65.2378C106.001 65.0211 105.905 64.7477 105.909 64.4667V53.4768C105.909 52.869 105.668 52.286 105.238 51.8561C104.808 51.4263 104.225 51.1848 103.617 51.1848H101.337V64.4546C101.338 64.6163 101.307 64.7764 101.244 64.9256C101.182 65.0749 101.091 65.21 100.975 65.3232C100.838 65.4594 100.67 65.5602 100.485 65.6169C100.3 65.6737 100.104 65.6846 99.9137 65.6489C99.6346 65.6028 99.3814 65.4581 99.1999 65.2412C99.0184 65.0243 98.9207 64.7495 98.9245 64.4667V51.1848H94.3645V64.4546C94.3656 64.6321 94.3276 64.8076 94.2531 64.9687C94.1786 65.1297 94.0695 65.2724 93.9335 65.3864C93.7976 65.5005 93.6381 65.5832 93.4666 65.6285C93.295 65.6739 93.1155 65.6809 92.941 65.6489V65.6489ZM110.337 71.9581C110.055 71.9117 109.801 71.7653 109.619 71.5458C109.437 71.3264 109.341 71.0487 109.347 70.7638C109.349 70.4474 109.474 70.1441 109.697 69.9194C109.92 69.6921 110.223 69.562 110.542 69.5575C111.567 69.5575 112.448 68.9061 112.737 67.9289L113.98 63.7911L109.914 50.1956C109.866 50.0435 109.848 49.8834 109.862 49.7244C109.876 49.5654 109.921 49.4107 109.995 49.2693C110.069 49.1279 110.17 49.0027 110.293 48.9008C110.416 48.7988 110.558 48.7223 110.71 48.6756C111.014 48.5913 111.339 48.627 111.617 48.7751C111.896 48.9233 112.107 49.1727 112.206 49.4718L115.222 59.6051L118.286 49.4718C118.431 48.9168 119.046 48.5429 119.674 48.6635L119.758 48.6756C120.41 48.8807 120.771 49.5683 120.578 50.2076L116.392 64.153L115.065 68.6165C114.768 69.5771 114.177 70.4206 113.377 71.0292C112.562 71.64 111.572 71.9702 110.554 71.9702C110.481 71.973 110.408 71.9689 110.337 71.9581" fill="#FEFEFE"/>
<path fill-rule="evenodd" clip-rule="evenodd" d="M36.6045 63.0071H38.969C39.5993 63.0071 40.2037 62.7567 40.6494 62.311C41.0951 61.8654 41.3455 61.2609 41.3455 60.6306V53.67C41.3471 53.3579 41.2872 53.0485 41.1692 52.7596C41.0513 52.4706 40.8775 52.2078 40.658 51.986C40.4384 51.7642 40.1773 51.5878 39.8896 51.4669C39.6019 51.346 39.2931 51.283 38.981 51.2814H36.6045V62.983V63.0071ZM35.1207 65.4922C34.8311 65.4432 34.5685 65.2923 34.3804 65.0666C34.1924 64.841 34.0912 64.5554 34.0953 64.2617V42.6439C34.0932 42.4785 34.1241 42.3144 34.1863 42.1611C34.2484 42.0078 34.3405 41.8684 34.4572 41.7512C34.5984 41.6046 34.7735 41.4949 34.967 41.4318C35.1605 41.3687 35.3666 41.3541 35.5671 41.3893C36.1703 41.51 36.6045 42.0166 36.6045 42.6319V48.7842H38.969C39.61 48.7827 40.2451 48.9075 40.8378 49.1518C41.4304 49.396 41.9691 49.7547 42.423 50.2074C42.8768 50.6601 43.2369 51.198 43.4826 51.79C43.7282 52.3821 43.8547 53.0169 43.8547 53.6579V60.6185C43.8515 61.9101 43.337 63.1479 42.4237 64.0612C41.5104 64.9745 40.2726 65.489 38.981 65.4922H35.3499C35.2693 65.497 35.1884 65.4929 35.1087 65.4801L35.1207 65.4922Z" fill="#333545"/>
<path fill-rule="evenodd" clip-rule="evenodd" d="M52.3594 51.1845C52.2239 51.1608 52.0867 51.1487 51.9492 51.1483C51.6362 51.1451 51.3258 51.2044 51.036 51.3227C50.7462 51.4409 50.4829 51.6159 50.2616 51.8372C50.0403 52.0585 49.8653 52.3218 49.747 52.6116C49.6287 52.9014 49.5695 53.2119 49.5727 53.5248V60.775C49.5711 61.0875 49.6315 61.3973 49.7504 61.6863C49.8692 61.9754 50.0442 62.238 50.2652 62.459C50.4862 62.68 50.7488 62.855 51.0379 62.9739C51.3269 63.0927 51.6367 63.1531 51.9492 63.1515C52.5795 63.1515 53.184 62.9011 53.6297 62.4554C54.0753 62.0098 54.3257 61.4053 54.3257 60.775V53.5369C54.3257 52.3667 53.4933 51.3896 52.3594 51.1845V51.1845ZM51.0927 65.6004C49.9616 65.4014 48.9372 64.8094 48.2 63.9288C47.4628 63.0481 47.0603 61.9355 47.0635 60.7871V53.5369C47.0614 52.8953 47.1872 52.2596 47.4337 51.6672C47.6802 51.0748 48.0424 50.5375 48.4991 50.0867C48.952 49.6339 49.49 49.275 50.0821 49.0307C50.6742 48.7864 51.3087 48.6615 51.9492 48.6633C53.2418 48.6633 54.4814 49.1767 55.3954 50.0907C56.3094 51.0047 56.8229 52.2443 56.8229 53.5369V60.7871C56.8229 62.0899 56.3162 63.3204 55.3873 64.2493C54.9362 64.7012 54.4002 65.0596 53.8102 65.3039C53.2202 65.5482 52.5878 65.6735 51.9492 65.6728C51.6621 65.674 51.3755 65.6498 51.0927 65.6004V65.6004ZM65.3276 51.1966C65.1922 51.1729 65.055 51.1607 64.9175 51.1604C64.6045 51.1572 64.294 51.2164 64.0042 51.3347C63.7144 51.453 63.4512 51.6279 63.2298 51.8493C63.0085 52.0706 62.8336 52.3339 62.7153 52.6236C62.597 52.9134 62.5377 53.2239 62.541 53.5369V60.7871C62.5394 61.0996 62.5997 61.4093 62.7186 61.6984C62.8375 61.9875 63.0125 62.2501 63.2335 62.4711C63.4545 62.6921 63.7171 62.8671 64.0061 62.9859C64.2952 63.1048 64.6049 63.1652 64.9175 63.1636C65.23 63.1652 65.5398 63.1048 65.8288 62.9859C66.1179 62.8671 66.3805 62.6921 66.6015 62.4711C66.8225 62.2501 66.9975 61.9875 67.1163 61.6984C67.2352 61.4093 67.2956 61.0996 67.294 60.7871V53.5369C67.294 52.3788 66.4616 51.4017 65.3276 51.1966V51.1966ZM64.061 65.6004C62.9321 65.3989 61.9105 64.8058 61.1757 63.9254C60.441 63.045 60.0402 61.9338 60.0438 60.7871V53.5369C60.0457 52.8259 60.2028 52.124 60.504 51.48C60.8052 50.836 61.2433 50.2655 61.7878 49.8083C62.3323 49.3511 62.97 49.0183 63.6564 48.833C64.3428 48.6477 65.0613 48.6145 65.7619 48.7356C66.8932 48.9317 67.9188 49.5209 68.6582 50.3992C69.3975 51.2776 69.803 52.3888 69.8032 53.5369V60.7871C69.8047 61.4315 69.6774 62.0697 69.4288 62.6643C69.1802 63.2588 68.8153 63.7977 68.3556 64.2493C67.9044 64.7012 67.3685 65.0596 66.7785 65.3039C66.1885 65.5482 65.556 65.6735 64.9175 65.6728C64.6279 65.6728 64.3384 65.6486 64.061 65.6004V65.6004ZM74.0375 65.6486C73.7478 65.5997 73.4852 65.4488 73.2972 65.2231C73.1091 64.9974 73.008 64.7119 73.0121 64.4182V42.6436C73.0121 42.3058 73.1327 41.9801 73.374 41.7509C73.5163 41.6104 73.6904 41.5063 73.8815 41.4475C74.0726 41.3887 74.2751 41.3769 74.4718 41.4131C75.0749 41.5096 75.5213 42.0283 75.5213 42.6436V55.5274L81.2876 49.0613C81.5772 48.7477 82.0114 48.6029 82.4457 48.6753C82.6647 48.712 82.8698 48.8066 83.0398 48.9494C83.2098 49.0922 83.3385 49.2779 83.4124 49.4873C83.4863 49.6966 83.5027 49.922 83.46 50.1398C83.4173 50.3577 83.317 50.5601 83.1695 50.7261L78.8146 55.5877L83.3143 63.8271C83.3953 63.966 83.4477 64.1198 83.4684 64.2793C83.4892 64.4388 83.4778 64.6009 83.4349 64.7559C83.3883 64.9158 83.3097 65.0644 83.204 65.193C83.0982 65.3215 82.9675 65.4273 82.8197 65.5039C82.5643 65.6507 82.265 65.702 81.9752 65.6486C81.795 65.6182 81.6237 65.5483 81.4736 65.4441C81.3235 65.3398 81.1982 65.2037 81.1067 65.0455L77.0533 57.5902L75.5092 59.2912V64.4182C75.5092 64.7509 75.377 65.07 75.1418 65.3053C74.9065 65.5406 74.5874 65.6728 74.2546 65.6728C74.1702 65.6728 74.0978 65.6728 74.0133 65.6486H74.0375ZM129.3 65.6366C128.622 65.523 127.977 65.2593 127.414 64.8649C126.85 64.4704 126.382 63.9551 126.043 63.3566C125.877 63.0633 125.834 62.7165 125.923 62.3915C126.019 62.0779 126.224 61.8125 126.502 61.6436C126.759 61.5028 127.058 61.4559 127.346 61.5109C127.708 61.5712 128.034 61.7883 128.215 62.114C128.54 62.669 129.059 63.0309 129.698 63.1394C130.028 63.1967 130.366 63.1787 130.688 63.0868C131.01 62.9949 131.307 62.8314 131.556 62.6086C132.039 62.1623 132.28 61.5229 132.22 60.8956C132.206 60.5741 132.117 60.2602 131.96 59.9794C131.803 59.6986 131.582 59.4587 131.315 59.2791L127.937 56.8785C127.387 56.4921 126.929 55.989 126.595 55.4051C126.261 54.8213 126.061 54.171 126.007 53.5007C125.963 52.8244 126.074 52.147 126.331 51.52C126.588 50.8929 126.985 50.3327 127.491 49.8817C127.984 49.4229 128.574 49.0798 129.217 48.8774C129.859 48.675 130.539 48.6183 131.206 48.7115C132.63 48.9528 133.788 49.7731 134.451 50.9312C134.611 51.2206 134.653 51.5607 134.567 51.8801C134.482 52.1995 134.276 52.4733 133.993 52.6442C133.738 52.791 133.438 52.8424 133.149 52.789C132.968 52.7585 132.797 52.6886 132.647 52.5844C132.497 52.4801 132.372 52.344 132.28 52.1858C132.129 51.9298 131.923 51.7106 131.676 51.5437C131.43 51.3769 131.15 51.2666 130.857 51.2207C130.556 51.1663 130.247 51.1827 129.954 51.2685C129.661 51.3544 129.391 51.5074 129.168 51.7153C128.949 51.9215 128.779 52.1731 128.668 52.4525C128.558 52.7318 128.51 53.032 128.528 53.3318C128.552 53.9229 128.89 54.502 129.397 54.8398L132.775 57.1921C133.348 57.5936 133.822 58.1207 134.161 58.7333C134.499 59.3458 134.694 60.0277 134.729 60.7267C134.785 61.4225 134.678 62.1218 134.416 62.7689C134.154 63.416 133.745 63.9931 133.221 64.4544C132.711 64.9279 132.103 65.2818 131.439 65.4905C130.775 65.6992 130.074 65.7573 129.385 65.6607L129.288 65.6366H129.3ZM138.987 65.6728C138.698 65.6219 138.435 65.4707 138.245 65.2458C138.056 65.0209 137.951 64.7365 137.95 64.4423V42.6677C137.948 42.5025 137.98 42.3386 138.042 42.1857C138.105 42.0327 138.197 41.8938 138.314 41.777C138.431 41.6601 138.569 41.5678 138.722 41.5053C138.875 41.4428 139.039 41.4115 139.204 41.4131L139.446 41.4252C140.049 41.5458 140.459 42.0404 140.459 42.6677V48.8201H142.836C143.476 48.8185 144.11 48.9435 144.703 49.1878C145.295 49.4322 145.832 49.7911 146.285 50.244C146.738 50.6969 147.097 51.2348 147.341 51.8268C147.586 52.4188 147.711 53.0533 147.709 53.6937V64.4302C147.71 64.6124 147.671 64.7925 147.595 64.9579C147.519 65.1233 147.407 65.2699 147.268 65.3873C147.128 65.5047 146.965 65.5901 146.789 65.6373C146.613 65.6846 146.429 65.6925 146.25 65.6607C145.646 65.5521 145.212 65.0334 145.212 64.4182V53.6817C145.212 53.3701 145.151 53.0617 145.031 52.774C144.911 52.4864 144.736 52.2252 144.515 52.0055C144.294 51.7858 144.032 51.6118 143.744 51.4937C143.456 51.3756 143.147 51.3156 142.836 51.3172H140.459V64.4302C140.46 64.6136 140.421 64.795 140.344 64.9614C140.267 65.1278 140.154 65.2751 140.014 65.3928C139.873 65.5104 139.708 65.5954 139.53 65.6417C139.353 65.6881 139.168 65.6945 138.987 65.6607V65.6728ZM156.214 51.2086C155.872 51.1466 155.521 51.1607 155.185 51.2498C154.849 51.339 154.537 51.501 154.271 51.7245C154.005 51.9479 153.792 52.2272 153.646 52.5426C153.5 52.8579 153.425 53.2015 153.427 53.549V60.7991C153.426 61.1106 153.486 61.4194 153.604 61.7077C153.722 61.9959 153.896 62.258 154.116 62.4788C154.335 62.6997 154.596 62.8749 154.884 62.9945C155.172 63.1141 155.48 63.1756 155.792 63.1756C156.419 63.1756 157.022 62.9344 157.469 62.488C157.692 62.2674 157.869 62.0044 157.989 61.7143C158.109 61.4243 158.17 61.1131 158.168 60.7991V53.5369C158.168 52.3788 157.348 51.3896 156.202 51.1966L156.214 51.2086ZM154.935 65.5883C153.807 65.3894 152.786 64.7987 152.051 63.9203C151.316 63.0419 150.915 61.9323 150.918 60.7871V53.5369C150.918 52.8249 151.074 52.1216 151.374 51.4761C151.675 50.8306 152.113 50.2586 152.657 49.8001C153.202 49.3416 153.841 49.0077 154.528 48.8217C155.215 48.6358 155.935 48.6023 156.636 48.7236C157.769 48.92 158.797 49.5109 159.536 50.3918C160.276 51.2727 160.68 52.3867 160.677 53.5369V60.7871C160.678 61.4296 160.55 62.0657 160.302 62.6582C160.053 63.2506 159.689 63.7875 159.23 64.2372C158.677 64.7928 157.997 65.206 157.249 65.4413C156.501 65.6767 155.707 65.7271 154.935 65.5883" fill="#333545"/>
<path fill-rule="evenodd" clip-rule="evenodd" d="M179.943 50.208C179.984 50.0547 179.995 49.8949 179.974 49.7376C179.953 49.5802 179.902 49.4285 179.823 49.2912C179.731 49.1447 179.612 49.0181 179.471 48.9186C179.33 48.8192 179.171 48.7489 179.002 48.7121C178.691 48.6533 178.369 48.7155 178.103 48.8858C177.836 49.0562 177.644 49.322 177.567 49.6289C177.567 49.6893 176.216 55.1299 175.154 59.2677L175.13 59.3521L175.106 59.2677L172.693 49.641C172.647 49.406 172.529 49.1909 172.357 49.0248C172.184 48.8587 171.965 48.7496 171.728 48.7121C171.656 48.698 171.584 48.6899 171.511 48.688C170.956 48.688 170.473 49.074 170.316 49.6289C170.304 49.6893 168.953 55.1299 167.904 59.2677L167.88 59.3521L167.856 59.2677C166.83 55.1299 165.443 49.6893 165.443 49.6289C165.386 49.398 165.263 49.1886 165.09 49.0259C164.917 48.8631 164.7 48.7542 164.466 48.7121C164.265 48.6766 164.058 48.6916 163.865 48.7557C163.671 48.8198 163.496 48.931 163.356 49.0794C163.217 49.2277 163.116 49.4085 163.063 49.6055C163.01 49.8025 163.007 50.0096 163.054 50.208L166.685 64.7204C166.754 64.9863 166.908 65.2224 167.124 65.3924C167.339 65.5623 167.605 65.6568 167.88 65.6613C168.471 65.6613 168.941 65.2753 169.062 64.7204L171.475 55.0816L171.511 54.9972L171.535 55.0816C172.596 59.2677 173.948 64.7324 173.948 64.7324C174.02 64.9932 174.173 65.2241 174.386 65.3913C174.599 65.5584 174.859 65.653 175.13 65.6613C175.408 65.67 175.68 65.5804 175.898 65.4083C176.117 65.2362 176.267 64.9926 176.324 64.7204L179.943 50.208V50.208Z" fill="#333545"/>
</svg>
