<svg width="214" height="116" viewBox="0 0 214 116" fill="none" xmlns="http://www.w3.org/2000/svg">
<g clip-path="url(#clip0_714_9591)">
<path d="M136.392 75.0127L146.453 63.8702L136.392 52.7261H147.007L151.99 58.1391L156.788 52.7261H167.032L157.02 63.8241L167.17 75.0127H156.511L151.574 69.5552L146.683 75.0127H136.392Z" fill="#FF6600"/>
<path d="M136.391 47.7302H124.997V52.726H136.391V60.2552H124.997V67.166H136.391V75.0126H116.623V39.9053H136.391V47.7302Z" fill="#FF6600"/>
<path d="M108.283 39.9053V54.2729H108.191C106.345 52.1811 104.038 51.4542 101.362 51.4542C95.8791 51.4542 91.7492 55.128 90.2995 59.9853C88.6463 54.6332 84.3826 51.3539 78.0603 51.3539C72.926 51.3539 68.8716 53.6256 66.7557 57.3274V52.7265H56.143V47.7312H67.7245V39.9053H46.6826V75.0131H56.143V60.2552H65.5725C65.2913 61.3393 65.1413 62.5 65.1413 63.7248C65.1413 71.0482 70.8169 76.1867 78.0603 76.1867C84.1513 76.1867 88.1653 73.368 90.2885 68.229H82.1813C81.0846 69.7728 80.2527 70.2313 78.0603 70.2313C75.518 70.2313 73.3262 68.0449 73.3262 65.4532H89.8343C90.5502 71.27 95.1469 76.2865 101.455 76.2865C104.176 76.2865 106.668 74.9671 108.191 72.7393H108.283V75.0121H116.623V39.9053H108.283ZM73.5895 60.3601C74.1155 58.1303 75.87 56.6728 78.0603 56.6728C80.4714 56.6728 82.1367 58.0853 82.5747 60.3601C82.7593 60.3601 73.5895 60.3601 73.5895 60.3601ZM103.222 69.6673C100.148 69.6673 98.2378 66.8439 98.2378 63.8959C98.2378 60.7448 99.8994 57.7146 103.222 57.7146C106.668 57.7146 108.04 60.7448 108.04 63.8959C108.04 66.8842 106.585 69.6673 103.222 69.6673Z" fill="#652C8F"/>
</g>
<defs>
<clipPath id="clip0_714_9591">
<rect width="120.635" height="36.1905" fill="white" transform="translate(46.6826 39.9053)"/>
</clipPath>
</defs>
</svg>
