<svg width="214" height="116" viewBox="0 0 214 116" fill="none" xmlns="http://www.w3.org/2000/svg">
<g clip-path="url(#clip0_714_9589)">
<path d="M85.3627 60.3672L84.4855 62.8472H84.4124C84.2662 62.288 83.9981 61.437 83.5595 60.4158L78.8568 48.6235H74.2515V67.4182H77.2973V55.8204C77.2973 55.091 77.2973 54.2643 77.2729 53.2432C77.2486 52.7326 77.1998 52.3435 77.1755 52.0518H77.2486C77.3948 52.7812 77.5653 53.3161 77.6872 53.6565L83.3402 67.3696H85.4845L91.0888 53.5349C91.2107 53.2188 91.3325 52.5867 91.4543 52.0518H91.5274C91.4543 53.4377 91.4056 54.6777 91.3812 55.4314V67.3453H94.622V48.5749H90.1873L85.3627 60.3672V60.3672ZM97.6922 53.8753H100.86V67.3453H97.6922V53.8753ZM99.3004 48.1858C98.7643 48.1858 98.3257 48.3804 97.9602 48.7207C97.5947 49.0611 97.3998 49.4988 97.3998 50.0337C97.3998 50.5443 97.5947 50.982 97.9602 51.3223C98.3257 51.6627 98.7643 51.8329 99.3004 51.8329C99.8365 51.8329 100.299 51.6384 100.641 51.3223C101.006 50.982 101.201 50.5443 101.201 50.0337C101.201 49.5231 101.006 49.0855 100.641 48.7207C100.324 48.3804 99.8608 48.1858 99.3004 48.1858V48.1858ZM112.093 53.7537C111.508 53.6322 110.899 53.5592 110.314 53.5592C108.876 53.5592 107.561 53.8753 106.464 54.5075C105.368 55.1396 104.49 56.015 103.93 57.1091C103.345 58.2275 103.053 59.5162 103.053 60.9993C103.053 62.288 103.345 63.4307 103.906 64.4762C104.466 65.4974 105.246 66.3241 106.294 66.8833C107.293 67.4425 108.462 67.7343 109.778 67.7343C111.289 67.7343 112.58 67.4182 113.604 66.8347L113.628 66.8104V63.8927L113.506 63.9899C113.043 64.3303 112.507 64.6221 111.971 64.7923C111.411 64.9868 110.899 65.0841 110.46 65.0841C109.193 65.0841 108.194 64.7194 107.488 63.917C106.757 63.139 106.391 62.0691 106.391 60.7319C106.391 59.346 106.757 58.2518 107.512 57.4495C108.267 56.6471 109.266 56.2338 110.485 56.2338C111.508 56.2338 112.556 56.5742 113.506 57.255L113.628 57.3522V54.2643L113.604 54.24C113.189 54.0698 112.726 53.8753 112.093 53.7537V53.7537ZM122.546 53.6565C121.766 53.6565 121.035 53.8996 120.402 54.4102C119.866 54.8479 119.5 55.48 119.184 56.2338H119.159V53.8753H115.992V67.3453H119.159V60.4644C119.159 59.2973 119.403 58.3248 119.939 57.6197C120.475 56.8903 121.157 56.5255 121.986 56.5255C122.278 56.5255 122.571 56.5985 122.936 56.6471C123.277 56.7444 123.521 56.8416 123.691 56.9632L123.813 57.0605V53.8996L123.74 53.8753C123.521 53.7294 123.082 53.6565 122.546 53.6565V53.6565ZM131.172 53.5836C128.955 53.5836 127.176 54.24 125.933 55.5287C124.666 56.8173 124.057 58.5922 124.057 60.8291C124.057 62.9201 124.69 64.6221 125.909 65.8621C127.127 67.0778 128.784 67.71 130.855 67.71C133.024 67.71 134.754 67.0535 135.997 65.7406C137.264 64.4276 137.873 62.677 137.873 60.513C137.873 58.3734 137.288 56.6714 136.094 55.4314C134.949 54.1914 133.268 53.5836 131.172 53.5836V53.5836ZM133.706 63.9413C133.121 64.6951 132.195 65.0598 131.05 65.0598C129.905 65.0598 128.979 64.6951 128.321 63.8927C127.663 63.139 127.346 62.0448 127.346 60.6589C127.346 59.2244 127.688 58.1303 128.321 57.3522C128.979 56.5742 129.881 56.1852 131.026 56.1852C132.147 56.1852 133.024 56.5499 133.657 57.3036C134.291 58.0573 134.632 59.1515 134.632 60.586C134.583 62.0448 134.315 63.1876 133.706 63.9413V63.9413ZM144.939 59.4675C143.94 59.0542 143.307 58.7381 143.014 58.4707C142.77 58.2275 142.649 57.8871 142.649 57.4495C142.649 57.0848 142.795 56.7201 143.16 56.4769C143.526 56.2338 143.94 56.1122 144.549 56.1122C145.085 56.1122 145.646 56.2095 146.182 56.3553C146.718 56.5012 147.205 56.7201 147.595 57.0118L147.717 57.1091V54.1428L147.644 54.1185C147.278 53.9726 146.791 53.8267 146.206 53.7051C145.621 53.6079 145.085 53.5592 144.647 53.5592C143.136 53.5592 141.893 53.9239 140.919 54.7263C139.944 55.48 139.481 56.5012 139.481 57.6926C139.481 58.3248 139.578 58.884 139.798 59.346C140.017 59.8079 140.334 60.2456 140.772 60.6103C141.211 60.9507 141.845 61.3397 142.722 61.7044C143.453 62.0205 144.013 62.2637 144.354 62.4582C144.695 62.6527 144.915 62.8715 145.085 63.0417C145.207 63.2362 145.28 63.4794 145.28 63.7954C145.28 64.6951 144.598 65.1327 143.209 65.1327C142.673 65.1327 142.113 65.0355 141.455 64.8166C140.797 64.5978 140.188 64.2817 139.676 63.917L139.554 63.8198V66.9076L139.627 66.9319C140.09 67.1508 140.651 67.2967 141.333 67.4669C142.015 67.5884 142.624 67.6857 143.16 67.6857C144.793 67.6857 146.133 67.321 147.083 66.5186C148.058 65.7406 148.57 64.7437 148.57 63.455C148.57 62.5554 148.326 61.7531 147.79 61.1452C147.083 60.5617 146.206 59.9538 144.939 59.4675V59.4675ZM156.928 53.5836C154.71 53.5836 152.931 54.24 151.689 55.5287C150.446 56.8173 149.812 58.5922 149.812 60.8291C149.812 62.9201 150.446 64.6221 151.664 65.8621C152.883 67.0778 154.54 67.71 156.611 67.71C158.779 67.71 160.509 67.0535 161.752 65.7406C163.019 64.4276 163.628 62.677 163.628 60.513C163.628 58.3734 163.044 56.6714 161.85 55.4314C160.704 54.1914 159.023 53.5836 156.928 53.5836V53.5836ZM159.437 63.9413C158.852 64.6951 157.927 65.0598 156.781 65.0598C155.612 65.0598 154.71 64.6951 154.052 63.8927C153.394 63.139 153.078 62.0448 153.078 60.6589C153.078 59.2244 153.419 58.1303 154.052 57.3522C154.71 56.5742 155.612 56.1852 156.757 56.1852C157.853 56.1852 158.755 56.5499 159.389 57.3036C160.022 58.0573 160.363 59.1515 160.363 60.586C160.363 62.0448 160.046 63.1876 159.437 63.9413V63.9413ZM180.563 56.4769V53.8753H177.371V49.8878L177.274 49.9121L174.252 50.8118L174.179 50.8361V53.8753H169.403V52.1733C169.403 51.3953 169.598 50.7874 169.939 50.3984C170.28 50.0094 170.792 49.8149 171.426 49.8149C171.864 49.8149 172.327 49.9121 172.839 50.131L172.961 50.2039V47.4564L172.888 47.4321C172.449 47.2862 171.864 47.189 171.109 47.189C170.159 47.189 169.33 47.4078 168.575 47.7725C167.819 48.1858 167.259 48.7451 166.845 49.4988C166.431 50.2282 166.211 51.0549 166.211 52.0031V53.8753H163.994V56.4526H166.211V67.3453H169.403V56.4769H174.179V63.4064C174.179 66.2512 175.519 67.6857 178.2 67.6857C178.638 67.6857 179.101 67.6127 179.54 67.5398C180.003 67.4425 180.344 67.321 180.539 67.2237L180.563 67.1994V64.5978L180.441 64.6951C180.246 64.8166 180.076 64.9139 179.783 64.9868C179.54 65.0598 179.32 65.0841 179.15 65.0841C178.516 65.0841 178.078 64.9382 177.761 64.5735C177.469 64.2331 177.322 63.6739 177.322 62.8472V56.4769H180.563V56.4769Z" fill="#737373"/>
<path d="M33.4126 42.3018H48.3494V57.2063H33.4126V42.3018Z" fill="#F25022"/>
<path d="M49.9087 42.3018H64.8455V57.2063H49.9087V42.3018Z" fill="#7FBA00"/>
<path d="M33.4126 58.7627H48.3494V73.6672H33.4126V58.7627Z" fill="#00A4EF"/>
<path d="M49.9087 58.7627H64.8455V73.6672H49.9087V58.7627Z" fill="#FFB900"/>
</g>
<defs>
<clipPath id="clip0_714_9589">
<rect width="147.175" height="31.3651" fill="white" transform="translate(33.4126 42.3018)"/>
</clipPath>
</defs>
</svg>
