<svg width="213" height="116" viewBox="0 0 213 116" fill="none" xmlns="http://www.w3.org/2000/svg">
<g clip-path="url(#clip0_714_9598)">
<path d="M139.173 75.6614C148.797 75.6614 156.629 67.7033 156.629 57.9232C156.629 48.1373 148.797 40.1851 139.173 40.1851C129.546 40.1851 121.716 48.1373 121.716 57.9232C121.716 67.7033 129.546 75.6614 139.173 75.6614ZM139.173 51.5981C142.603 51.5981 145.396 54.4354 145.396 57.9213C145.396 61.4072 142.601 64.2406 139.171 64.2406C135.739 64.2406 132.949 61.4072 132.949 57.9194C132.949 54.4296 135.741 51.5942 139.171 51.5942L139.173 51.5981ZM73.3135 75.6614C82.9383 75.6614 90.7696 67.7033 90.7696 57.9232C90.7696 48.1373 82.9383 40.1851 73.3135 40.1851C63.6907 40.1851 55.8574 48.1373 55.8574 57.9232C55.8574 67.7033 63.6907 75.6614 73.3135 75.6614ZM73.3135 51.5981C76.7455 51.5981 79.5369 54.4354 79.5369 57.9213C79.5369 61.4072 76.7455 64.2406 73.3135 64.2406C69.8835 64.2406 67.094 61.4072 67.094 57.9194C67.094 54.4296 69.8854 51.5942 73.3135 51.5942V51.5981ZM106.233 51.1985L100.874 40.4167H88.3262L100.046 64.0032V75.1074H112.422V64.0032L124.143 40.4167H111.589L106.235 51.1985H106.233Z" fill="#EE2E24"/>
</g>
<defs>
<clipPath id="clip0_714_9598">
<rect width="101.333" height="38.6032" fill="white" transform="translate(55.8574 38.6987)"/>
</clipPath>
</defs>
</svg>
