<svg width="213" height="116" viewBox="0 0 213 116" fill="none" xmlns="http://www.w3.org/2000/svg">
<g clip-path="url(#clip0_714_9600)">
<path fill-rule="evenodd" clip-rule="evenodd" d="M151.612 56.6175L144.088 69.6875L137.669 69.7131L151.612 45.1126L165.504 69.7131H158.983L151.612 56.6162V56.6175ZM131.352 64.0234H138.542L135.204 69.7131H125.832L125.858 62.7853V45.2638H131.379L131.353 64.0234H131.352ZM111.633 45.2651C118.489 45.2907 124.035 50.751 124.009 57.5006C123.984 64.226 118.438 69.6875 111.581 69.6875C104.751 69.6618 99.2044 64.2016 99.2044 57.4507C99.2298 50.7253 104.776 45.2651 111.633 45.2651V45.2651ZM111.608 63.9991C115.279 63.9991 118.231 61.0908 118.231 57.5006C118.257 53.9118 115.279 50.9778 111.633 50.9778C107.986 50.9522 105.007 53.8861 105.007 57.4763C104.982 61.0652 107.96 63.9991 111.606 63.9991H111.608ZM88.9851 55.5588C88.9089 54.5462 88.6508 53.2068 88.2656 51.9186C87.4731 49.2579 86.0952 46.8118 84.2346 44.7626C83.2584 43.7014 82.155 42.7144 80.51 41.5519C79.2561 40.9279 78.0232 40.2619 76.8133 39.5549C76.0176 39.0999 75.0667 38.5423 73.8095 38.1386C72.3188 37.7838 70.795 37.5892 69.2636 37.558C67.7763 37.5067 66.2852 37.6349 64.8475 37.9117C63.3322 38.1642 62.0737 38.568 60.4046 38.973C56.6291 40.6162 53.7028 43.0938 51.1858 46.3815C42.4043 58.7439 50.3392 76.0629 65.0013 78.1098C67.4153 78.4392 69.8293 78.3124 72.1137 77.7817L73.7319 77.3523C73.7828 77.3267 73.8603 77.3011 73.9112 77.3011L75.7608 76.5935C75.8625 76.5423 75.94 76.5166 76.043 76.4666L76.8133 76.1129C78.2914 75.3774 79.6789 74.4697 80.9473 73.4084C79.7927 74.4662 78.537 75.406 77.1985 76.2141L77.2748 76.2654C77.5328 76.1885 77.7629 76.1129 78.0197 76.0629C78.0197 76.0629 78.0197 76.4666 77.9689 76.391C77.5583 76.6948 78.2002 76.4167 79.0214 75.986C79.8439 75.5566 80.6397 75.0247 81.3579 74.4184C82.4117 73.534 83.3359 72.5727 84.6452 71.0064C85.98 68.6544 87.6504 66.6062 88.4207 63.8504C88.6775 63.1173 88.9076 62.2585 89.0627 61.3728C89.2152 60.4884 89.3195 59.5784 89.3195 58.6427C89.294 57.707 89.1911 56.7457 88.9851 55.5588V55.5588ZM69.9831 76.341C74.4769 75.6322 78.2511 73.1303 81.3325 69.717C82.1804 68.4775 82.8478 67.3393 83.669 66.1012C84.6961 63.5723 84.6198 61.3228 84.9529 59.7309C85.3647 56.847 84.3885 54.5219 83.5673 52.0442C82.3088 49.1616 80.6397 47.0134 77.7121 45.3446C70.3162 40.7431 60.2508 42.0312 55.4494 48.9091C55.424 48.9091 55.2944 49.086 55.0376 49.4397C55.3719 48.0247 56.2198 47.1903 57.0664 46.3802C59.5834 44.3076 62.511 42.6631 65.8492 41.8556C69.6247 41.4506 73.3722 41.8556 76.7358 43.4988C81.7698 46.3802 85.108 50.9073 85.9546 56.265V61.2216C84.902 69.3376 77.9689 75.5066 69.9831 76.341V76.341ZM88.4462 57.8839C88.2656 46.0021 76.5311 37.9873 65.1043 39.6062C61.7661 40.4393 58.119 42.1082 55.5257 44.4345C54.2672 45.2677 53.6774 46.8109 52.4189 48.049C47.3849 55.4575 48.2595 64.9386 54.524 70.7039C55.3276 71.5049 56.1856 72.2484 57.0918 72.929C51.8545 69.767 49.4913 64.9873 48.6701 59.1746C48.6701 57.1007 49.0807 55.0525 49.5167 52.9799C52.4456 43.9026 61.6631 37.3042 71.7044 38.973C73.3735 39.378 75.0426 39.8074 76.7383 40.2124C78.8435 41.0456 80.9232 42.285 82.5922 43.9295C84.2613 45.5714 85.5198 47.6453 86.7783 49.6922C87.625 51.3367 88.0368 53.4093 88.4474 55.0525C88.5237 55.9882 88.5237 56.9495 88.4474 57.8852L88.4462 57.8839Z" fill="black"/>
<path fill-rule="evenodd" clip-rule="evenodd" d="M78.0206 58.0625C78.0206 63.1703 73.7583 67.3167 68.4942 67.3167C63.2314 67.3167 58.9678 63.1703 58.9678 58.0625C58.9678 52.956 63.2301 48.8096 68.4942 48.8096C73.7583 48.8096 78.0206 52.956 78.0206 58.0638V58.0625Z" fill="white"/>
<path fill-rule="evenodd" clip-rule="evenodd" d="M78.073 56.4945C77.9446 55.787 77.7387 55.2307 77.534 54.4475C76.7116 52.7274 75.5052 51.388 73.9124 50.2498C67.9555 46.2815 59.7638 50.0986 58.8918 56.8752C58.5587 59.5553 59.5083 62.1342 61.2028 64.1068C60.6893 63.5748 60.1248 63.0198 59.7397 62.3867L59.6888 62.4379C59.7397 62.5892 59.9456 62.6904 59.9965 62.8417C59.9965 62.8417 59.7905 62.8417 59.8426 62.816C59.6888 62.6404 59.8172 62.9186 60.0473 63.2967C60.2532 63.6761 60.51 64.0311 60.8177 64.3593C61.2549 64.8399 61.7164 65.2693 62.4867 65.8512C63.6181 66.4319 64.6186 67.1906 65.9279 67.5444C66.2877 67.6469 66.6983 67.7469 67.1101 67.8225C67.5461 67.8995 67.9567 67.9251 68.4195 67.9251C68.8555 67.9251 69.3182 67.8738 69.8826 67.7713C70.4647 67.7022 71.04 67.5843 71.6026 67.4188C72.8593 67.0374 74.0169 66.3809 74.9929 65.4962C75.481 65.0424 76.1751 64.4605 76.7128 63.7017C77.1501 62.843 77.201 62.4123 77.4069 62.0329C77.6116 61.6535 77.8683 61.2241 78.0489 60.6422C78.196 59.9519 78.2819 59.2497 78.3056 58.544C78.2802 57.8365 78.2294 57.1533 78.0743 56.4958L78.073 56.4945ZM71.9611 51.793C72.8344 52.298 72.9628 52.3737 72.5 52.0455C73.1687 52.1968 73.5793 52.5762 73.9899 52.9556C74.9916 54.0938 75.8128 55.4332 76.2234 56.9751C76.4548 58.7196 76.2743 60.464 75.5306 62.0073C74.1958 64.358 72.064 65.9256 69.5216 66.3549C69.2394 66.3549 68.9318 66.3549 68.6483 66.3806C69.3678 66.2537 69.8305 65.7987 71.1399 65.318C72.5509 64.813 74.1437 62.4623 74.9153 61.0959C77.1743 57.3789 74.5035 53.9412 71.9611 51.793V51.793ZM67.1343 66.4049C63.2317 66.0012 60.2265 62.7904 59.8159 59.0733C60.1744 61.1472 61.4075 62.7391 63.0766 64.1555C63.6677 64.5349 64.5397 65.0655 65.1309 65.4449C66.1326 65.8243 66.7224 66.2293 67.6987 66.4062H67.1343V66.4049ZM77.6357 59.6553C77.4577 60.4397 77.2772 61.1972 77.0967 61.9816C76.7116 62.9429 76.1471 63.9286 75.3768 64.7118C74.6064 65.4962 73.6301 66.1024 72.6551 66.6844C71.8848 67.0881 70.9085 67.2906 70.1127 67.4919C69.65 67.5431 69.111 67.3406 68.6483 67.3163C74.3496 67.1637 78.2523 61.8304 77.4056 56.5457C76.9938 55.0038 76.1726 53.6631 75.1708 52.3237C74.7602 51.7418 73.9632 51.388 73.3734 50.8061C69.8038 48.5566 65.08 49.0116 62.3838 51.9699C62.0057 52.3587 61.6537 52.7723 61.3299 53.2081C62.769 51.0842 65.08 49.5936 67.8525 49.1629C68.8288 49.1373 69.8305 49.3154 70.8055 49.4923C75.12 50.8061 78.3298 55.0038 77.6357 59.6565V59.6553Z" fill="#D7DF23"/>
</g>
<defs>
<clipPath id="clip0_714_9600">
<rect width="118.222" height="41.0159" fill="white" transform="translate(47.4131 37.5083)"/>
</clipPath>
</defs>
</svg>
