<svg width="214" height="116" viewBox="0 0 214 116" fill="none" xmlns="http://www.w3.org/2000/svg">
<g clip-path="url(#clip0_714_9607)">
<path d="M139.124 41.6104H133.509C133.188 41.6104 133.027 41.9323 133.027 42.0933V54.3542H127.412V42.0933C127.412 41.7713 127.091 41.6104 126.931 41.6104H121.315C120.994 41.6104 120.834 41.9323 120.834 42.0933V73.5638C120.834 73.8857 121.155 74.0467 121.315 74.0467H126.931C127.251 74.0467 127.412 73.7247 127.412 73.5638V60.9809H133.027V73.5638C133.027 73.8857 133.348 74.0467 133.509 74.0467H139.124C139.445 74.0467 139.606 73.7247 139.606 73.5638V42.0933C139.606 41.9323 139.445 41.6104 139.124 41.6104ZM91.7932 41.6104H86.1776C85.8567 41.6104 85.6963 41.7713 85.6963 42.0933V64.3882C85.6963 65.515 85.3754 66.3199 84.8941 66.9638C84.4127 67.6077 83.771 67.7687 82.9687 67.7687C82.1933 67.7687 81.5247 67.4468 81.0434 66.9638C80.5621 66.3199 80.2412 65.515 80.2412 64.3882V42.0933C80.2412 41.7713 79.9203 41.6104 79.7599 41.6104H74.1443C73.8234 41.6104 73.663 41.7713 73.663 42.0933V64.5492C73.663 67.4468 74.3047 70.1833 76.0696 71.9809C77.8345 73.7516 80.2412 74.7174 82.9955 74.7174C85.8835 74.7174 88.3169 73.7516 89.9213 71.9809C91.6862 70.2101 92.328 67.6346 92.328 64.5492V42.0933C92.3013 41.9323 92.1408 41.6104 91.7932 41.6104ZM36.7607 41.1274C33.8727 41.1274 31.4393 42.0933 29.8349 43.864C28.07 45.6347 27.4282 48.2103 27.4282 51.2957V64.7102C27.4282 67.6077 28.07 70.3443 29.8349 72.1418C31.5998 73.9125 34.0064 74.8784 36.7607 74.8784C39.6487 74.8784 42.0821 73.9125 43.6866 72.1418C45.4515 70.3711 46.0933 67.7955 46.0933 64.7102V57.3054C46.0933 56.9834 45.7724 56.6615 45.4515 56.6615H37.2421C36.9212 56.6615 36.6003 56.9834 36.6003 57.3054V62.8053C36.6003 63.1273 36.9212 63.4492 37.2421 63.4492H39.3546V64.737C39.3546 65.8638 39.0337 66.8565 38.5524 67.4736C38.071 68.1175 37.4293 68.2784 36.627 68.2784C35.8516 68.2784 35.183 67.9565 34.7017 67.4736C34.2204 66.8297 33.8995 65.8638 33.8995 64.737V51.4834C33.8995 50.3566 34.2204 49.364 34.7017 48.7469C35.183 48.103 35.8248 47.942 36.627 47.942C37.4025 47.942 38.071 48.264 38.5524 48.7469C39.0337 49.3908 39.3546 50.3566 39.3546 51.4834V52.7713C39.3546 53.0932 39.6755 53.2542 39.8359 53.2542H45.4515C45.7724 53.2542 45.9328 53.0932 45.9328 52.7713V51.4834C45.9328 48.5859 45.291 45.8494 43.5261 44.0518C42.0821 42.0933 39.4883 41.1274 36.7607 41.1274V41.1274ZM109.175 66.8028C108.693 67.4467 108.052 67.6077 107.062 67.6077H103.853V60.7931H107.062C107.864 60.7931 108.506 61.1151 108.987 61.598C109.469 62.2419 109.79 63.0468 109.79 64.0126C109.843 65.3541 109.683 66.1321 109.175 66.8028V66.8028ZM103.853 48.2371H106.741C107.543 48.2371 108.185 48.3981 108.667 49.042C109.148 49.5249 109.308 50.3298 109.308 51.3225C109.308 52.3152 109.148 53.0932 108.667 53.7371C108.185 54.22 107.543 54.542 106.902 54.542H104.014V48.2371H103.853ZM113.186 57.4395C114.148 56.4737 115.913 54.22 115.913 51.2957C115.913 47.8884 114.63 45.7957 113.64 44.6689C111.875 42.7372 109.469 41.7713 106.715 41.7713H97.9168C97.5959 41.7713 97.4355 42.0933 97.4355 42.2542V73.7516C97.4355 74.0735 97.7564 74.2345 97.9168 74.2345H107.249C110.137 74.2345 112.865 73.1077 114.657 70.8272C115.619 69.5394 116.769 67.4199 116.769 64.2004C116.582 60.337 114.175 58.0566 113.186 57.4395V57.4395ZM62.0307 54.3542C61.5494 54.9981 60.7472 55.32 59.7578 55.32H57.0302V48.2371H59.7578C60.7204 48.2371 61.5227 48.5591 62.0307 49.203C62.6725 49.8469 62.833 50.6517 62.833 51.7786C62.833 52.9054 62.6993 53.7103 62.0307 54.3542V54.3542ZM65.5873 60.1761C66.229 59.6931 66.7104 59.3712 67.1917 58.7273C68.3148 57.4395 69.7588 55.159 69.7588 51.6176C69.7588 48.2103 68.4753 45.9835 67.1917 44.6689C65.5873 42.7372 63.1806 41.7714 60.4263 41.6104H51.0938C50.7729 41.6104 50.6124 41.9323 50.6124 42.0933V73.5638C50.6124 73.8857 50.9333 74.0467 51.0938 74.0467H56.7093C57.0302 74.0467 57.1907 73.7247 57.1907 73.5638V61.92H59.116L62.6725 73.8589C62.6725 74.0199 62.9934 74.1808 63.1539 74.1808H69.0903C69.2507 74.1808 69.4112 74.0199 69.5716 74.0199C69.7321 74.0199 69.7321 73.6979 69.7321 73.5369L65.5873 60.1761V60.1761ZM180.145 66.8028C179.663 67.4467 179.021 67.6077 178.032 67.6077H174.823V60.7931H178.032C178.834 60.7931 179.476 61.1151 179.957 61.598C180.439 62.2419 180.76 63.0468 180.76 64.0126C180.947 65.3541 180.653 66.1321 180.145 66.8028ZM174.984 48.2371H177.872C178.674 48.2371 179.316 48.3981 179.797 49.042C180.278 49.5249 180.439 50.3298 180.439 51.3225C180.439 52.3152 180.278 53.0932 179.797 53.7371C179.316 54.22 178.674 54.542 178.032 54.542H175.144V48.2371H174.984V48.2371ZM184.316 57.4395C185.279 56.4737 187.044 54.22 187.044 51.2957C187.044 47.8884 185.76 45.7957 184.771 44.6689C183.006 42.7372 180.599 41.7713 177.845 41.7713H168.967C168.646 41.7713 168.486 42.0933 168.486 42.2542V73.7516C168.486 74.0735 168.807 74.2345 168.967 74.2345H178.353C181.241 74.2345 183.969 73.1077 185.76 70.8272C186.723 69.5394 187.873 67.4199 187.873 64.2004C187.552 60.337 185.145 58.0566 184.316 57.4395V57.4395ZM162.763 41.6104H157.148C156.827 41.6104 156.666 41.7713 156.666 42.0933V64.3882C156.666 65.515 156.345 66.3199 155.864 66.9638C155.383 67.6077 154.741 67.7687 153.939 67.7687C153.163 67.7687 152.495 67.4468 152.013 66.9638C151.532 66.3199 151.211 65.515 151.211 64.3882V42.0933C151.211 41.7713 150.89 41.6104 150.73 41.6104H145.087C144.767 41.6104 144.606 41.7713 144.606 42.0933V64.5492C144.606 67.4468 145.248 70.1833 147.013 71.9809C148.778 73.7516 151.184 74.7174 153.939 74.7174C156.827 74.7174 159.26 73.7516 160.865 71.9809C162.629 70.2101 163.271 67.6346 163.271 64.5492V42.0933C163.432 41.9323 163.111 41.6104 162.763 41.6104Z" fill="#F63440"/>
</g>
<defs>
<clipPath id="clip0_714_9607">
<rect width="160.444" height="33.7778" fill="white" transform="translate(27.4282 41.1274)"/>
</clipPath>
</defs>
</svg>
