<svg width="214" height="116" viewBox="0 0 214 116" fill="none" xmlns="http://www.w3.org/2000/svg">
<g clip-path="url(#clip0_714_9579)">
<path fill-rule="evenodd" clip-rule="evenodd" d="M62.9632 53.2573C61.1405 53.2573 59.5782 53.9183 58.2762 54.9759V53.5217H53.8496V70.5752H58.4064V59.735C59.0574 58.8096 60.6197 57.6198 62.5727 57.6198C63.2236 57.6198 63.8746 57.752 64.3954 57.8842V53.5217C63.8746 53.3895 63.3538 53.2573 62.9632 53.2573Z" fill="#293E40"/>
<path fill-rule="evenodd" clip-rule="evenodd" d="M23.775 65.2867C24.9468 66.3443 26.7695 67.0053 28.3318 67.0053C29.5036 67.0053 30.5451 66.3443 30.5451 65.5511C30.5451 62.9071 22.3429 63.8325 22.3429 58.4124C22.3429 55.1075 25.4675 53.1245 28.7224 53.1245C30.9357 53.1245 33.2792 53.9177 34.451 54.8431L32.3679 58.148C31.4565 57.6192 30.4149 56.9582 29.113 56.9582C27.811 56.9582 26.8997 57.487 26.8997 58.4124C26.8997 60.6598 35.1019 59.7344 35.1019 65.6833C35.1019 68.9882 31.9773 70.9712 28.462 70.9712C26.1185 70.9712 23.6448 70.178 21.6919 68.7238L23.775 65.2867Z" fill="#293E40"/>
<path fill-rule="evenodd" clip-rule="evenodd" d="M51.8971 61.8496C51.8971 57.0904 48.6422 53.1245 43.9552 53.1245C39.0078 53.1245 35.7529 57.3548 35.7529 61.9818C35.7529 67.4019 39.5286 70.839 44.476 70.839C47.0799 70.839 49.6838 69.7814 51.3763 67.7985L48.7724 65.1545C47.9912 66.0799 46.4289 67.1375 44.6062 67.1375C42.2627 67.1375 40.3097 65.4189 40.0494 63.0393H51.6367C51.8971 62.7749 51.8971 62.3783 51.8971 61.8496ZM40.4399 59.8666C40.7003 58.2802 42.2627 56.826 44.0854 56.826C45.9081 56.826 47.2101 58.2802 47.4705 59.8666H40.4399V59.8666Z" fill="#293E40"/>
<path fill-rule="evenodd" clip-rule="evenodd" d="M74.9416 63.9646L79.4984 53.521H84.1854L76.5039 70.5745H73.3792L65.6978 53.521H70.2546L74.9416 63.9646Z" fill="#293E40"/>
<path fill-rule="evenodd" clip-rule="evenodd" d="M87.961 45.457C89.6535 45.457 90.9554 46.779 90.9554 48.3654C90.9554 50.0839 89.6535 51.2737 87.961 51.2737C86.2684 51.2737 85.0967 49.9518 85.0967 48.3654C85.0967 46.6468 86.2684 45.457 87.961 45.457Z" fill="#293E40"/>
<path d="M90.3049 53.521H85.748V70.5745H90.3049V53.521Z" fill="#293E40"/>
<path fill-rule="evenodd" clip-rule="evenodd" d="M108.792 67.0053C106.839 69.6492 104.365 70.839 101.241 70.839C96.033 70.839 92.2573 66.8731 92.2573 61.9818C92.2573 56.9582 96.1632 53.1245 101.241 53.1245C104.235 53.1245 106.709 54.5787 108.271 56.5617L105.277 59.3378C104.365 58.148 103.063 57.3548 101.501 57.3548C98.8972 57.3548 96.9443 59.47 96.9443 61.9818C96.9443 64.6257 98.7671 66.6087 101.501 66.6087C103.324 66.6087 104.756 65.5511 105.537 64.3613L108.792 67.0053Z" fill="#293E40"/>
<path fill-rule="evenodd" clip-rule="evenodd" d="M125.067 67.7985C123.374 69.7814 120.77 70.839 118.166 70.839C113.219 70.839 109.443 67.4019 109.443 61.9818C109.443 57.2226 112.568 53.1245 117.646 53.1245C122.202 53.1245 125.588 57.0904 125.588 61.8496C125.588 62.3783 125.588 62.7749 125.457 63.1715H113.74C114 65.5511 115.953 67.2697 118.297 67.2697C120.119 67.2697 121.682 66.2121 122.463 65.2867L125.067 67.7985ZM120.901 59.8666C120.77 58.4124 119.468 56.826 117.515 56.826C115.693 56.826 114.13 58.2802 113.87 59.8666H120.901V59.8666Z" fill="#293E40"/>
<path fill-rule="evenodd" clip-rule="evenodd" d="M127.28 70.5752V53.5217H131.576V54.9759C132.878 53.9183 134.44 53.2573 136.263 53.2573C138.607 53.2573 140.69 54.3149 142.122 56.0335C143.164 57.3555 143.945 59.074 143.945 61.9824V70.7074H139.388V61.5858C139.388 59.8672 138.997 58.9418 138.346 58.413C137.695 57.752 136.914 57.3555 135.742 57.3555C133.92 57.3555 132.357 58.5452 131.576 59.4706V70.5752C131.706 70.5752 127.28 70.5752 127.28 70.5752Z" fill="#293E40"/>
<path fill-rule="evenodd" clip-rule="evenodd" d="M155.532 53.1245C150.064 53.1245 145.768 57.487 145.768 63.0393C145.768 65.9477 146.939 68.5916 148.762 70.4424C149.413 71.1034 150.585 71.1034 151.366 70.5746C152.408 69.6492 153.97 69.1204 155.532 69.1204C157.225 69.1204 158.527 69.6492 159.698 70.5746C160.48 71.2356 161.521 71.1034 162.302 70.3102C164.125 68.4594 165.297 65.9477 165.297 63.0393C165.167 57.6192 160.87 53.1245 155.532 53.1245ZM155.402 68.195C152.408 68.195 150.455 65.9477 150.455 63.1715C150.455 60.3954 152.408 58.148 155.402 58.148C158.396 58.148 160.349 60.3954 160.349 63.1715C160.349 65.9477 158.396 68.195 155.402 68.195Z" fill="#81B5A1"/>
<path fill-rule="evenodd" clip-rule="evenodd" d="M174.15 70.5745H170.765L164.125 53.521H168.552L172.197 63.3036L175.843 53.521H179.618L183.133 63.3036L186.779 53.521H191.336L184.696 70.5745H181.311L177.665 60.9241L174.15 70.5745Z" fill="#293E40"/>
<path d="M191.336 68.592H190.945V69.253H190.685V67.27H191.466C191.856 67.27 192.117 67.5344 192.117 67.931C192.117 68.1954 191.856 68.4598 191.726 68.592L192.247 69.3852H191.856L191.336 68.592ZM190.945 68.3276H191.466C191.726 68.3276 191.726 68.1954 191.726 68.0632C191.726 67.7988 191.596 67.7988 191.466 67.7988H190.945V68.3276Z" fill="#293E40"/>
<path d="M191.336 66.609C192.377 66.609 193.158 67.4022 193.158 68.4598C193.158 69.5173 192.377 70.3105 191.336 70.3105C190.294 70.3105 189.513 69.5173 189.513 68.4598C189.513 67.4022 190.424 66.609 191.336 66.609ZM191.336 66.2124C190.164 66.2124 189.252 67.27 189.252 68.3276C189.252 69.5173 190.294 70.4427 191.336 70.4427C192.507 70.4427 193.419 69.3851 193.419 68.3276C193.419 67.27 192.377 66.2124 191.336 66.2124Z" fill="#293E40"/>
</g>
<defs>
<clipPath id="clip0_714_9579">
<rect width="172.508" height="26.5397" fill="white" transform="translate(21.3013 44.7461)"/>
</clipPath>
</defs>
</svg>
