<svg width="213" height="116" viewBox="0 0 213 116" fill="none" xmlns="http://www.w3.org/2000/svg">
<g clip-path="url(#clip0_714_9596)">
<path d="M22.6295 57.0313C22.5636 56.9478 22.4765 56.8823 22.3767 56.8409C22.2769 56.7995 22.1678 56.7837 22.0598 56.7951C21.9519 56.8064 21.8488 56.8445 21.7605 56.9056C21.6723 56.9668 21.6018 57.0489 21.5559 57.1441L16.116 67.663C16.0664 67.7588 16.043 67.8654 16.048 67.9724C16.053 68.0795 16.0862 68.1836 16.1445 68.2747C16.2027 68.3659 16.2841 68.4412 16.3809 68.4934C16.4777 68.5456 16.5867 68.573 16.6975 68.573H24.2723C24.3937 68.5757 24.5132 68.5443 24.6164 68.4826C24.7196 68.4209 24.8021 68.3315 24.8538 68.2254C26.4878 64.9599 25.4976 59.9948 22.6295 57.0313Z" fill="url(#paint0_linear_714_9596)"/>
<path d="M26.6195 47.4639C25.264 49.481 24.4741 51.8042 24.3273 54.2057C24.1804 56.6071 24.6817 59.0042 25.7819 61.1618L29.4338 68.2254C29.4878 68.3299 29.5708 68.4177 29.6735 68.4791C29.7762 68.5405 29.8946 68.573 30.0153 68.5731H37.5888C37.6996 68.5731 37.8086 68.5456 37.9054 68.4934C38.0022 68.4412 38.0836 68.366 38.1419 68.2748C38.2001 68.1836 38.2333 68.0796 38.2383 67.9725C38.2433 67.8654 38.2199 67.7589 38.1703 67.6631C38.1703 67.6631 27.9814 47.953 27.7254 47.46C27.6748 47.3596 27.5959 47.2751 27.4979 47.2161C27.3998 47.1571 27.2866 47.1261 27.1712 47.1265C27.0557 47.1269 26.9427 47.1588 26.8451 47.2184C26.7476 47.2781 26.6694 47.3632 26.6195 47.4639V47.4639Z" fill="#2684FF"/>
<path d="M115.452 55.8983C115.452 58.5031 116.702 60.5711 121.589 61.484C124.505 62.076 125.115 62.5312 125.115 63.4711C125.115 64.3841 124.503 64.9751 122.45 64.9751C119.967 64.9319 117.535 64.2954 115.369 63.1222V67.3647C116.841 68.0629 118.784 68.8417 122.394 68.8417C127.503 68.8417 129.53 66.6382 129.53 63.3636L115.452 55.8983ZM129.53 63.3636C129.53 60.2754 127.836 58.825 123.061 57.8318C120.423 57.2678 119.784 56.7041 119.784 55.8983C119.784 54.8788 120.728 54.4483 122.477 54.4483C124.588 54.4483 126.67 55.0659 128.642 55.9253V51.8702C126.751 51.0381 124.693 50.6253 122.616 50.6619C117.896 50.6619 115.452 52.649 115.452 55.8983" fill="#0052CC"/>
<path d="M181.09 50.9297V68.5728H184.977V55.119L186.615 58.6903L192.113 68.5728H197V50.9297H193.113V62.3158L191.641 59.0126L187.226 50.9297H181.09Z" fill="#0052CC"/>
<path d="M156.366 50.9297H152.117V68.5728H156.366V50.9297Z" fill="#0052CC"/>
<path d="M147.215 63.3636C147.215 60.2754 145.521 58.825 140.746 57.8318C138.108 57.2678 137.469 56.7041 137.469 55.8983C137.469 54.8788 138.413 54.4483 140.162 54.4483C142.273 54.4483 144.355 55.0659 146.327 55.9253V51.8702C144.436 51.0381 142.378 50.6253 140.301 50.6619C135.581 50.6619 133.138 52.649 133.138 55.8983C133.138 58.5031 134.387 60.5711 139.274 61.484C142.19 62.076 142.8 62.5312 142.8 63.4711C142.8 64.3841 142.188 64.9751 140.135 64.9751C137.653 64.9319 135.22 64.2954 133.054 63.1222V67.3647C134.526 68.0629 136.469 68.8417 140.079 68.8417C145.188 68.8417 147.215 66.6382 147.215 63.3636" fill="#0052CC"/>
<path d="M82.4497 50.9297V68.5728H91.1818L92.5566 64.7594H86.7256V50.9297H82.4497Z" fill="#0052CC"/>
<path d="M65.1978 50.9297V54.7427H69.9181V68.5728H74.194V54.7427H79.2477V50.9297H65.1978Z" fill="#0052CC"/>
<path d="M58.9971 50.9297H53.3932L47.0317 68.5728H51.8898L52.7917 65.6013C55.0128 66.2321 57.3745 66.2321 59.5956 65.6013L60.4974 68.5728H65.3566L58.9971 50.9297ZM56.195 62.4198C55.4036 62.4197 54.6164 62.3102 53.8571 62.0945L56.195 54.3951L58.5329 62.0971C57.7735 62.3119 56.9862 62.4206 56.195 62.4198V62.4198Z" fill="#0052CC"/>
<path d="M106.236 50.9297H100.632L94.2705 68.5728H99.1296L100.031 65.6013C102.253 66.2321 104.614 66.2321 106.835 65.6013L107.737 68.5728H112.596L106.236 50.9297ZM103.434 62.4198C102.642 62.4197 101.855 62.3102 101.096 62.0945L103.434 54.3951L105.772 62.0971C105.012 62.3119 104.225 62.4206 103.434 62.4198Z" fill="#0052CC"/>
<path d="M171.674 50.9297H166.071L159.709 68.5728H164.569L165.47 65.6013C167.692 66.2321 170.053 66.2321 172.274 65.6013L173.176 68.5728H178.036L171.674 50.9297ZM168.871 62.4198C168.08 62.4197 167.292 62.3102 166.533 62.0945L168.871 54.3951L171.209 62.0971C170.45 62.3119 169.662 62.4206 168.871 62.4198V62.4198Z" fill="#0052CC"/>
</g>
<defs>
<linearGradient id="paint0_linear_714_9596" x1="25.6108" y1="58.6546" x2="20.153" y2="68.4294" gradientUnits="userSpaceOnUse">
<stop stop-color="#0052CC"/>
<stop offset="0.923" stop-color="#2684FF"/>
</linearGradient>
<clipPath id="clip0_714_9596">
<rect width="180.952" height="21.7143" fill="white" transform="translate(16.0479 47.1274)"/>
</clipPath>
</defs>
</svg>
