<svg width="1216" height="300" viewBox="0 0 1216 300" fill="none" xmlns="http://www.w3.org/2000/svg">
<g clip-path="url(#clip0_714_9971)">
<path opacity="0.08" d="M783.287 206.715C665.471 122.077 503.106 220.981 374.429 154C307.479 119.15 293.901 87.7021 245.858 35.7146C215.043 2.36945 212.105 -3.43556 182.858 -27.2854C153.61 -51.1353 100.572 -78.714 100.572 -78.714V-166.143H1485.29V416.286H1154.86C1154.86 416.286 978.373 419.035 893.858 346.857C842.455 302.958 843.597 250.041 783.287 206.715Z" fill="white"/>
<path opacity="0.08" d="M830.857 178.715C713.041 94.0768 550.676 214.838 422 147.857C355.049 113.007 320 -10.4998 300.5 -46.9998C289.815 -66.9998 273.5 -84.9998 247 -98.9998C220.5 -113 148.143 -106.714 148.143 -106.714V-194.143H1532.86V351.715H1223C1223 351.715 1005.71 358.715 935 308.572C873.285 264.811 891.168 222.041 830.857 178.715Z" fill="white"/>
</g>
<defs>
<clipPath id="clip0_714_9971">
<rect width="1216" height="300" fill="white"/>
</clipPath>
</defs>
</svg>
