<svg width="20" height="20" viewBox="0 0 20 20" fill="none" xmlns="http://www.w3.org/2000/svg">
<g clip-path="url(#clip0_714_9653)">
<path d="M9.99981 18.3327C5.39743 18.3327 1.6665 14.6017 1.6665 9.99935C1.6665 5.39698 5.39746 1.66602 9.99984 1.66602C13.7312 1.66602 16.8546 4.11843 17.9165 7.49935H15.8331" stroke="#141B34" stroke-opacity="0.6" stroke-width="1.5" stroke-linecap="round" stroke-linejoin="round"/>
<path d="M10 6.66602V9.99935L11.6667 11.666" stroke="#141B34" stroke-opacity="0.6" stroke-width="1.5" stroke-linecap="round" stroke-linejoin="round"/>
<path d="M18.2959 10.8328C18.3207 10.5586 18.3333 10.2806 18.3333 9.99951M12.5 18.3328C12.7847 18.2391 13.0627 18.1299 13.3333 18.006M17.3255 14.1662C17.4862 13.8565 17.6296 13.5356 17.7542 13.2047M15.1604 16.8572C15.4475 16.6196 15.7193 16.3627 15.974 16.0883" stroke="#141B34" stroke-opacity="0.6" stroke-width="1.5" stroke-linecap="round" stroke-linejoin="round"/>
</g>
<defs>
<clipPath id="clip0_714_9653">
<rect width="20" height="20" fill="white" transform="translate(0 -0.000488281)"/>
</clipPath>
</defs>
</svg>
