<svg width="64" height="64" viewBox="0 0 64 64" fill="none" xmlns="http://www.w3.org/2000/svg">
<rect width="64" height="64" rx="32" fill="#F9FAFB"/>
<g clip-path="url(#clip0_714_12091)">
<path d="M38 30H44L41 26L38 30ZM38 34H44L41 38L38 34Z" fill="#C4B5FD"/>
<path d="M21 20H27V44H21C20.7348 44 20.4804 43.8946 20.2929 43.7071C20.1054 43.5196 20 43.2652 20 43V21C20 20.7348 20.1054 20.4804 20.2929 20.2929C20.4804 20.1054 20.7348 20 21 20Z" fill="#7C3AED"/>
<path d="M29 20H35C35.2652 20 35.5196 20.1054 35.7071 20.2929C35.8946 20.4804 36 20.7348 36 21V43C36 43.2652 35.8946 43.5196 35.7071 43.7071C35.5196 43.8946 35.2652 44 35 44H29V20Z" fill="#1DB5BE"/>
</g>
<defs>
<clipPath id="clip0_714_12091">
<rect width="24" height="24" fill="white" transform="translate(20 20)"/>
</clipPath>
</defs>
</svg>
