<svg width="80" height="84" viewBox="0 0 80 84" fill="none" xmlns="http://www.w3.org/2000/svg">
<g filter="url(#filter0_ddi_714_9851)">
<rect x="12" y="6" width="56" height="56" rx="28" fill="url(#paint0_linear_714_9851)" shape-rendering="crispEdges"/>
<g filter="url(#filter1_i_714_9851)">
<path fill-rule="evenodd" clip-rule="evenodd" d="M48.4717 20.4515C48.7969 20.6254 48.9998 20.9639 48.9998 21.3324V22.9053L53.0444 21.6863C53.3473 21.595 53.6755 21.6523 53.9295 21.8408C54.1835 22.0293 54.3332 22.3268 54.3332 22.6429V43.37L40.476 47.5239C40.3546 47.5895 40.2219 47.6288 40.0866 47.6406L39.9998 47.6666L39.9132 47.6406C39.7982 47.6306 39.6839 47.6007 39.5757 47.55C39.5581 47.5418 39.5408 47.5331 39.5239 47.5239L25.6665 43.37V22.6429C25.6665 22.3268 25.8162 22.0293 26.0702 21.8408C26.3241 21.6523 26.6524 21.595 26.9553 21.6863L39.8374 25.5688L47.4451 20.5011C47.752 20.2967 48.1465 20.2776 48.4717 20.4515ZM40.9998 27.1962V44.5118L46.9998 39.5159V23.1994L40.9998 27.1962Z" fill="#61DCDF"/>
</g>
</g>
<defs>
<filter id="filter0_ddi_714_9851" x="0" y="-2" width="80" height="86" filterUnits="userSpaceOnUse" color-interpolation-filters="sRGB">
<feFlood flood-opacity="0" result="BackgroundImageFix"/>
<feColorMatrix in="SourceAlpha" type="matrix" values="0 0 0 0 0 0 0 0 0 0 0 0 0 0 0 0 0 0 127 0" result="hardAlpha"/>
<feOffset dy="6"/>
<feGaussianBlur stdDeviation="6"/>
<feComposite in2="hardAlpha" operator="out"/>
<feColorMatrix type="matrix" values="0 0 0 0 0.380392 0 0 0 0 0.862745 0 0 0 0 0.87451 0 0 0 0.25 0"/>
<feBlend mode="normal" in2="BackgroundImageFix" result="effect1_dropShadow_714_9851"/>
<feColorMatrix in="SourceAlpha" type="matrix" values="0 0 0 0 0 0 0 0 0 0 0 0 0 0 0 0 0 0 127 0" result="hardAlpha"/>
<feMorphology radius="10" operator="erode" in="SourceAlpha" result="effect2_dropShadow_714_9851"/>
<feOffset dy="16"/>
<feGaussianBlur stdDeviation="8"/>
<feComposite in2="hardAlpha" operator="out"/>
<feColorMatrix type="matrix" values="0 0 0 0 0.380392 0 0 0 0 0.862745 0 0 0 0 0.87451 0 0 0 0.08 0"/>
<feBlend mode="normal" in2="effect1_dropShadow_714_9851" result="effect2_dropShadow_714_9851"/>
<feBlend mode="normal" in="SourceGraphic" in2="effect2_dropShadow_714_9851" result="shape"/>
<feColorMatrix in="SourceAlpha" type="matrix" values="0 0 0 0 0 0 0 0 0 0 0 0 0 0 0 0 0 0 127 0" result="hardAlpha"/>
<feMorphology radius="5" operator="dilate" in="SourceAlpha" result="effect3_innerShadow_714_9851"/>
<feOffset dy="-8"/>
<feGaussianBlur stdDeviation="12"/>
<feComposite in2="hardAlpha" operator="arithmetic" k2="-1" k3="1"/>
<feColorMatrix type="matrix" values="0 0 0 0 0.380392 0 0 0 0 0.862745 0 0 0 0 0.87451 0 0 0 0.08 0"/>
<feBlend mode="normal" in2="shape" result="effect3_innerShadow_714_9851"/>
</filter>
<filter id="filter1_i_714_9851" x="25.6665" y="20.3333" width="28.6665" height="30.3333" filterUnits="userSpaceOnUse" color-interpolation-filters="sRGB">
<feFlood flood-opacity="0" result="BackgroundImageFix"/>
<feBlend mode="normal" in="SourceGraphic" in2="BackgroundImageFix" result="shape"/>
<feColorMatrix in="SourceAlpha" type="matrix" values="0 0 0 0 0 0 0 0 0 0 0 0 0 0 0 0 0 0 127 0" result="hardAlpha"/>
<feOffset dy="3"/>
<feGaussianBlur stdDeviation="2"/>
<feComposite in2="hardAlpha" operator="arithmetic" k2="-1" k3="1"/>
<feColorMatrix type="matrix" values="0 0 0 0 1 0 0 0 0 1 0 0 0 0 1 0 0 0 0.25 0"/>
<feBlend mode="normal" in2="shape" result="effect1_innerShadow_714_9851"/>
</filter>
<linearGradient id="paint0_linear_714_9851" x1="40" y1="6" x2="40" y2="62" gradientUnits="userSpaceOnUse">
<stop stop-color="#61DCDF" stop-opacity="0.1"/>
<stop offset="1" stop-color="#61DCDF" stop-opacity="0.4"/>
</linearGradient>
</defs>
</svg>
