<svg width="90" height="30" viewBox="0 0 90 30" fill="none" xmlns="http://www.w3.org/2000/svg">
<path d="M33.0016 9.41363H36.6923V22.3388H33.0016V20.6585C31.6836 22.5973 29.97 22.7266 28.9156 22.7266C24.8295 22.7266 22.1934 19.6245 22.1934 15.8762C22.1934 11.9987 24.8295 9.02588 28.652 9.02588C29.7064 9.02588 31.6836 9.15513 32.8698 11.0939V9.41363H33.0016ZM26.1476 15.8762C26.1476 17.9442 27.5975 19.4953 29.8382 19.4953C31.9472 19.4953 33.5289 17.9442 33.5289 15.8762C33.5289 13.8082 32.079 12.2572 29.8382 12.2572C27.7293 12.2572 26.1476 13.8082 26.1476 15.8762Z" fill="black"/>
<path d="M43.9413 12.5171V22.3402H40.2507V12.5171H38.8008V9.41506H40.2507V5.02051H43.9413V9.41506H46.4457V12.5171H43.9413Z" fill="black"/>
<path d="M55.1448 12.5157C54.2221 11.7402 53.4313 11.6109 53.0359 11.6109C52.1132 11.6109 51.586 11.9987 51.586 12.6449C51.586 13.0327 51.7178 13.4204 52.7723 13.8082L53.6949 14.0667C54.7494 14.4544 56.3311 14.8422 56.9901 15.8762C57.3855 16.3932 57.6492 17.1687 57.6492 18.0735C57.6492 19.2368 57.2537 20.4 56.1993 21.3048C55.1448 22.2096 53.8267 22.7266 52.245 22.7266C49.477 22.7266 48.0271 21.434 47.1045 20.5293L49.0816 18.332C49.8725 19.1075 50.9269 19.883 51.9814 19.883C53.0359 19.883 53.8267 19.366 53.8267 18.4613C53.8267 17.6857 53.1677 17.298 52.6404 17.1687L51.8496 16.9102C50.9269 16.5225 49.8725 16.1347 49.0816 15.3592C48.4226 14.713 48.0272 13.9374 48.0272 12.9034C48.0272 11.6109 48.6862 10.5769 49.3452 9.93064C50.3997 9.15513 51.7178 9.02588 52.7723 9.02588C53.6949 9.02588 55.2766 9.15513 56.9901 10.4476L55.1448 12.5157Z" fill="black"/>
<path d="M63.1858 11.0954C64.5038 9.28584 66.3491 9.02734 67.4036 9.02734C71.2261 9.02734 73.8622 12.0001 73.8622 15.8777C73.8622 19.7552 71.2261 22.728 67.2718 22.728C66.481 22.728 64.5038 22.5988 63.0539 20.66V22.3403H59.4951V0.625977H63.1858V11.0954ZM62.7903 15.8777C62.7903 17.9457 64.2402 19.4967 66.481 19.4967C68.5899 19.4967 70.1716 17.9457 70.1716 15.8777C70.1716 13.8097 68.7217 12.2586 66.481 12.2586C64.2402 12.2586 62.7903 13.8097 62.7903 15.8777Z" fill="black"/>
<path d="M79.925 20.4009L73.5981 9.41455H77.9478L82.0339 16.7819L85.7245 9.41455H89.9424L79.3977 29.1901H75.1799L79.925 20.4009Z" fill="black"/>
<path d="M21.2705 11.6105H17.5799H12.0439V15.2296H16.9208C16.13 17.6854 14.2846 19.3656 10.8576 19.3656C7.03518 19.3656 4.26721 16.2636 4.26721 12.5153C4.26721 8.76699 6.90338 5.53569 10.7258 5.53569C12.8348 5.53569 14.9437 6.56971 16.2618 8.24998L19.2934 6.31121C17.3162 3.59692 14.1528 2.0459 10.7258 2.0459C4.92625 2.0459 0.181152 6.69896 0.181152 12.5153C0.181152 18.3316 4.66264 22.9847 10.7258 22.9847C16.789 22.9847 21.2705 18.3316 21.2705 12.5153C21.4023 12.1275 21.2705 11.869 21.2705 11.6105Z" fill="black"/>
</svg>
