<svg width="37" height="38" viewBox="0 0 37 38" fill="none" xmlns="http://www.w3.org/2000/svg">
<path d="M33.0458 18.9989H23.8192V21.584H30.146C29.2233 25.4615 26.3235 28.6928 22.5011 29.9853L7.34314 15.1214C8.92484 10.5976 13.4063 7.36628 18.5469 7.36628C22.5011 7.36628 26.0599 9.30506 28.3007 12.2779L30.2778 10.5976C27.6416 7.10778 23.4238 4.78125 18.5469 4.78125C11.6928 4.78125 5.89325 9.56356 4.44336 15.8969L21.8421 32.9581C28.1689 31.4071 33.0458 25.72 33.0458 18.9989Z" fill="white"/>
<path d="M4.04785 19.1299C4.04785 22.7489 5.49774 26.2387 8.26572 28.953C11.0337 31.6673 14.7243 33.0891 18.2832 33.0891L4.04785 19.1299Z" fill="white"/>
<path d="M18.5464 0.905273C8.39719 0.905273 0.0932617 9.04813 0.0932617 19.0005C0.0932617 28.9529 8.39719 37.0958 18.5464 37.0958C28.6957 37.0958 36.9996 28.9529 36.9996 19.0005C36.9996 9.04813 28.6957 0.905273 18.5464 0.905273ZM8.26538 29.0821C5.4974 26.3679 4.04751 22.7488 4.04751 19.259L18.4146 33.2182C14.724 33.0889 11.0334 31.7964 8.26538 29.0821ZM21.7098 32.8304L4.44294 15.8985C5.89283 9.56514 11.6924 4.78282 18.5464 4.78282C23.4233 4.78282 27.6412 7.10936 30.2774 10.5992L28.3002 12.2794C26.0595 9.30663 22.5007 7.36786 18.5464 7.36786C13.4059 7.36786 9.05623 10.5992 7.34272 15.123L22.5007 29.9869C26.3231 28.6944 29.2229 25.4631 30.1456 21.5855H23.8188V19.0005H33.0453C33.0453 25.7216 28.1684 31.4087 21.7098 32.8304Z" fill="#663399"/>
</svg>
