<svg width="25" height="24" viewBox="0 0 25 24" fill="none" xmlns="http://www.w3.org/2000/svg">
<path fill-rule="evenodd" clip-rule="evenodd" d="M16.667 3.24268H8.66699C5.90557 3.24268 3.66699 5.48126 3.66699 8.24268V16.2427C3.66699 19.0041 5.90557 21.2427 8.66699 21.2427H16.667C19.4284 21.2427 21.667 19.0041 21.667 16.2427V8.24268C21.667 5.48126 19.4284 3.24268 16.667 3.24268ZM19.917 16.2427C19.9115 18.0353 18.4596 19.4872 16.667 19.4927H8.66699C6.87434 19.4872 5.42248 18.0353 5.41699 16.2427V8.24268C5.42248 6.45003 6.87434 4.99817 8.66699 4.99268H16.667C18.4596 4.99817 19.9115 6.45003 19.917 8.24268V16.2427ZM17.417 8.49268C17.9693 8.49268 18.417 8.04496 18.417 7.49268C18.417 6.9404 17.9693 6.49268 17.417 6.49268C16.8647 6.49268 16.417 6.9404 16.417 7.49268C16.417 8.04496 16.8647 8.49268 17.417 8.49268ZM12.667 7.74268C10.1817 7.74268 8.16699 9.7574 8.16699 12.2427C8.16699 14.728 10.1817 16.7427 12.667 16.7427C15.1523 16.7427 17.167 14.728 17.167 12.2427C17.1697 11.0484 16.6964 9.90225 15.8519 9.05776C15.0074 8.21327 13.8613 7.74002 12.667 7.74268ZM9.91699 12.2427C9.91699 13.7615 11.1482 14.9927 12.667 14.9927C14.1858 14.9927 15.417 13.7615 15.417 12.2427C15.417 10.7239 14.1858 9.49268 12.667 9.49268C11.1482 9.49268 9.91699 10.7239 9.91699 12.2427Z" fill="white"/>
</svg>
