<svg width="25" height="24" viewBox="0 0 25 24" fill="none" xmlns="http://www.w3.org/2000/svg">
<path fill-rule="evenodd" clip-rule="evenodd" d="M5.16699 3.24268C4.33856 3.24268 3.66699 3.91425 3.66699 4.74268V19.7427C3.66699 20.5711 4.33856 21.2427 5.16699 21.2427H20.167C20.9954 21.2427 21.667 20.5711 21.667 19.7427V4.74268C21.667 3.91425 20.9954 3.24268 20.167 3.24268H5.16699ZM9.18775 7.2454C9.19338 8.20165 8.4776 8.79087 7.62822 8.78665C6.82806 8.78243 6.13056 8.1454 6.13478 7.24681C6.139 6.40165 6.80697 5.72243 7.67463 5.74212C8.55494 5.76181 9.19338 6.40728 9.18775 7.2454ZM12.9467 10.0044H10.4267H10.4253V18.5643H13.0887V18.3646C13.0887 17.9847 13.0884 17.6047 13.0881 17.2246C13.0873 16.2108 13.0864 15.1959 13.0916 14.1824C13.093 13.9363 13.1042 13.6804 13.1675 13.4455C13.4051 12.568 14.1941 12.0013 15.0744 12.1406C15.6397 12.2291 16.0137 12.5568 16.1712 13.0898C16.2683 13.423 16.3119 13.7816 16.3161 14.129C16.3275 15.1766 16.3259 16.2242 16.3243 17.2719C16.3237 17.6417 16.3231 18.0117 16.3231 18.3815V18.5629H18.995V18.3576C18.995 17.9056 18.9948 17.4537 18.9945 17.0018C18.994 15.8723 18.9934 14.7428 18.9964 13.6129C18.9978 13.1024 18.943 12.599 18.8178 12.1054C18.6308 11.3713 18.2441 10.7638 17.6155 10.3251C17.1697 10.0129 16.6803 9.81178 16.1333 9.78928C16.071 9.78669 16.0082 9.7833 15.9451 9.77989C15.6654 9.76477 15.3811 9.74941 15.1137 9.80334C14.3487 9.95662 13.6766 10.3068 13.1689 10.9241C13.1099 10.9949 13.0522 11.0668 12.9661 11.1741L12.9467 11.1984V10.0044ZM6.34863 18.5671H8.99941V10.01H6.34863V18.5671Z" fill="white"/>
</svg>
