<svg width="25" height="24" viewBox="0 0 25 24" fill="none" xmlns="http://www.w3.org/2000/svg">
<path d="M22.2598 7.20301C22.1459 6.78041 21.9233 6.39501 21.6142 6.08518C21.3051 5.77534 20.9202 5.55187 20.4978 5.43701C18.9318 5.00701 12.6668 5.00001 12.6668 5.00001C12.6668 5.00001 6.40283 4.99301 4.83583 5.40401C4.41376 5.52415 4.02966 5.75078 3.7204 6.06214C3.41114 6.3735 3.18712 6.75913 3.06983 7.18201C2.65683 8.74801 2.65283 11.996 2.65283 11.996C2.65283 11.996 2.64883 15.26 3.05883 16.81C3.28883 17.667 3.96383 18.344 4.82183 18.575C6.40383 19.005 12.6518 19.012 12.6518 19.012C12.6518 19.012 18.9168 19.019 20.4828 18.609C20.9053 18.4943 21.2906 18.2714 21.6005 17.9622C21.9104 17.653 22.1342 17.2682 22.2498 16.846C22.6638 15.281 22.6668 12.034 22.6668 12.034C22.6668 12.034 22.6868 8.76901 22.2598 7.20301ZM10.6628 15.005L10.6678 9.00501L15.8748 12.01L10.6628 15.005Z" fill="white"/>
</svg>
