<svg width="120" height="32" viewBox="0 0 120 32" fill="none" xmlns="http://www.w3.org/2000/svg">
<g clip-path="url(#clip0_714_10073)">
<g clip-path="url(#clip1_714_10073)">
<path d="M0.616211 32H10.7874C15.6105 32 19.5203 27.8295 19.5203 22.6849H9.34909C4.52605 22.6849 0.616211 26.8554 0.616211 32Z" fill="#F22BB2"/>
<path d="M1.07129 9.31507V23.0137C5.89432 23.0137 9.80417 18.8432 9.80417 13.6986V0C4.98113 0 1.07129 4.1705 1.07129 9.31507Z" fill="#8C30F5"/>
<path d="M29.3836 0H19.2124C14.3893 0 10.4795 4.1705 10.4795 9.31507H20.6507C25.4738 9.31507 29.3836 5.14457 29.3836 0Z" fill="#FE9A22"/>
<path d="M29.3838 22.137V8.43835C24.5607 8.43835 20.6509 12.6089 20.6509 17.7534V31.4521C25.4739 31.4521 29.3838 27.2816 29.3838 22.137Z" fill="#2EC5CE"/>
</g>
<path d="M43.2855 20.48V8.00003H39.8569V24H48.6426V20.48H43.2855Z" fill="white"/>
<path d="M57.7195 12.5715V13.6457C57.0123 12.7772 55.9623 12.2515 54.5266 12.2515C51.7195 12.2515 49.4052 14.88 49.4052 18.2857C49.4052 21.6915 51.7195 24.32 54.5266 24.32C55.9623 24.32 57.0123 23.7943 57.7195 22.9257V24H60.9338V12.5715H57.7195ZM55.1695 21.0743C53.6909 21.0743 52.6195 20 52.6195 18.2857C52.6195 16.5715 53.6909 15.4972 55.1695 15.4972C56.6481 15.4972 57.7195 16.5715 57.7195 18.2857C57.7195 20 56.6481 21.0743 55.1695 21.0743Z" fill="white"/>
<path d="M69.5705 12.2515C68.1562 12.2515 67.0848 12.8 66.5062 13.6457V12.5715H63.2919V24H66.5062V17.76C66.5062 16.1372 67.3205 15.4057 68.4991 15.4057C69.5276 15.4057 70.3634 16.0686 70.3634 17.4857V24H73.5776V16.9829C73.5776 13.8972 71.7348 12.2515 69.5705 12.2515Z" fill="white"/>
<path d="M83.5635 8.00003V13.6457C82.8564 12.7772 81.8064 12.2515 80.3707 12.2515C77.5635 12.2515 75.2492 14.88 75.2492 18.2857C75.2492 21.6915 77.5635 24.32 80.3707 24.32C81.8064 24.32 82.8564 23.7943 83.5635 22.9257V24H86.7778V8.00003H83.5635ZM81.0135 21.0743C79.5349 21.0743 78.4635 20 78.4635 18.2857C78.4635 16.5715 79.5349 15.4972 81.0135 15.4972C82.4921 15.4972 83.5635 16.5715 83.5635 18.2857C83.5635 20 82.4921 21.0743 81.0135 21.0743Z" fill="white"/>
<path d="M90.7431 11.5657C91.7931 11.5657 92.6717 10.6286 92.6717 9.5086C92.6717 8.3886 91.7931 7.45145 90.7431 7.45145C89.6931 7.45145 88.8145 8.3886 88.8145 9.5086C88.8145 10.6286 89.6931 11.5657 90.7431 11.5657ZM89.1359 24H92.3502V12.5715H89.1359V24Z" fill="white"/>
<path d="M100.595 10.9715V7.68003C97.0381 7.45145 95.3881 9.37145 95.3881 12.5715H93.9524V15.8629H95.3881V24H98.6024V15.8629H100.595V12.5715H98.6024C98.6024 11.2457 99.3952 10.8572 100.595 10.9715Z" fill="white"/>
<path d="M108.944 12.5715L106.93 19.5657L104.551 12.5715H101.015L105.28 23.4743C104.808 24.8686 104.101 25.3715 102.601 25.3715V28.5715C105.601 28.7315 107.508 27.2915 108.708 23.6572L112.373 12.5715H108.944Z" fill="white"/>
<path d="M115.47 4.79999H112.573V5.59199H113.631V8.99999H114.407V5.59199H115.47V4.79999Z" fill="white"/>
<path d="M119.757 4.79999H118.958L117.833 6.78599L116.702 4.79999H115.903V8.99999H116.68V6.28199L117.788 8.22599H117.878L118.986 6.27599V8.99999H119.757V4.79999Z" fill="white"/>
</g>
<defs>
<clipPath id="clip0_714_10073">
<rect width="120" height="32" fill="white"/>
</clipPath>
<clipPath id="clip1_714_10073">
<rect width="30" height="32" fill="white"/>
</clipPath>
</defs>
</svg>
