<svg width="161" height="93" viewBox="0 0 161 93" fill="none" xmlns="http://www.w3.org/2000/svg">
<path d="M82.976 0.273669L84.8061 4.21704L89.8061 1.33029L82.976 0.273669ZM160.424 44.9883L158.594 41.045L153.594 43.9317L160.424 44.9883ZM160.424 47.9639L153.594 49.0205L158.594 51.9073L160.424 47.9639ZM82.976 92.6786L89.8061 91.622L84.8061 88.7352L82.976 92.6786ZM78.026 92.6786L76.1958 88.7352L71.1958 91.622L78.026 92.6786ZM0.577898 47.9639L2.40802 51.9073L7.40803 49.0205L0.577898 47.9639ZM0.577892 44.9883L7.40802 43.9317L2.40802 41.045L0.577892 44.9883ZM78.026 0.273669L71.1958 1.33029L76.1958 4.21704L78.026 0.273669ZM86.4401 2.77367L156.094 42.9883L156.96 42.4883L87.3061 2.27367L86.4401 2.77367ZM156.094 49.9639L86.4401 90.1786L87.3061 90.6786L156.96 50.4639L156.094 49.9639ZM74.5619 90.1786L4.90802 49.9639L4.042 50.4639L73.6958 90.6786L74.5619 90.1786ZM4.90802 42.9883L74.5619 2.77367L73.6958 2.27367L4.04199 42.4883L4.90802 42.9883Z" fill="#B9C1FF"/>
</svg>
