<svg width="28" height="28" viewBox="0 0 28 28" fill="none" xmlns="http://www.w3.org/2000/svg">
<path d="M28 4.2175C26.9515 4.70309 25.8394 5.02188 24.7006 5.16329C25.885 4.41891 26.796 3.24255 27.2247 1.8388C26.0972 2.53867 24.8635 3.03175 23.577 3.29674C22.4913 2.08397 20.973 1.39703 19.3845 1.39991C16.2134 1.39991 13.6397 4.08932 13.6397 7.4069C13.6397 7.8783 13.6904 8.33775 13.7897 8.77645C9.01489 8.52552 4.78308 6.13487 1.94924 2.49967C1.45443 3.38586 1.17219 4.41891 1.17219 5.52016C1.17219 7.60345 2.18593 9.44255 3.727 10.5201C2.81459 10.4908 1.92219 10.2331 1.12467 9.76859V9.84519C1.12467 12.7551 3.105 15.1833 5.73162 15.7363C4.88568 15.9759 3.99871 16.0111 3.13787 15.8391C3.86919 18.2262 5.99135 19.9627 8.504 20.0132C6.53832 21.6219 4.06176 22.5841 1.36976 22.5841C0.912008 22.5836 0.454668 22.5555 0 22.5C2.54195 24.204 5.56209 25.1999 8.80589 25.1999C19.372 25.1999 25.149 16.0439 25.149 8.10382C25.149 7.84411 25.149 7.5844 25.1312 7.32655C26.2553 6.47589 27.226 5.42319 27.9982 4.2175H28Z" fill="#6B7280"/>
</svg>
