<svg width="24" height="24" viewBox="0 0 24 24" fill="none" xmlns="http://www.w3.org/2000/svg">
<path opacity="0.1" fill-rule="evenodd" clip-rule="evenodd" d="M0 12C0 5.37258 5.37258 0 12 0C18.6274 0 24 5.37258 24 12C24 18.6274 18.6274 24 12 24C5.37258 24 0 18.6274 0 12Z" fill="white"/>
<path fill-rule="evenodd" clip-rule="evenodd" d="M18.4001 11.9911C18.4001 12.4239 18.356 12.8561 18.2695 13.2775C18.1851 13.6888 18.0601 14.0926 17.8963 14.4786C17.7363 14.8578 17.5379 15.2232 17.306 15.5639C17.0776 15.9026 16.8144 16.2202 16.5253 16.5098C16.2356 16.7982 15.9169 17.0606 15.5784 17.29C15.2365 17.5203 14.8706 17.7184 14.4912 17.8792C14.1046 18.0421 13.6999 18.1669 13.2889 18.2511C12.867 18.3379 12.4333 18.3822 11.9998 18.3822C11.566 18.3822 11.1323 18.3379 10.711 18.2511C10.2994 18.1669 9.89471 18.0421 9.50844 17.8792C9.12905 17.7184 8.76277 17.5203 8.42088 17.29C8.08243 17.0606 7.76366 16.7982 7.47458 16.5098C7.1852 16.2202 6.92205 15.9026 6.69329 15.5639C6.46265 15.2232 6.26388 14.8577 6.10326 14.4786C5.93948 14.0926 5.81418 13.6887 5.72948 13.2775C5.64386 12.8561 5.6001 12.4239 5.6001 11.9911C5.6001 11.558 5.64384 11.1248 5.72951 10.7044C5.8142 10.2931 5.9395 9.88869 6.10328 9.5033C6.2639 9.12384 6.46268 8.75811 6.69332 8.41731C6.92207 8.07842 7.18523 7.76134 7.47461 7.47143C7.76369 7.18307 8.08245 6.92127 8.42091 6.69222C8.76279 6.46096 9.12908 6.26282 9.50846 6.10178C9.89474 5.93854 10.2994 5.81342 10.711 5.7298C11.1323 5.64368 11.5661 5.59998 11.9998 5.59998C12.4333 5.59998 12.8671 5.64368 13.2889 5.7298C13.6999 5.81345 14.1046 5.93857 14.4912 6.10178C14.8706 6.2628 15.2366 6.46096 15.5784 6.69222C15.9169 6.92127 16.2357 7.18307 16.5254 7.47143C16.8144 7.76134 17.0776 8.07842 17.306 8.41731C17.5379 8.75811 17.7363 9.12386 17.8963 9.5033C18.0601 9.88869 18.1851 10.2931 18.2695 10.7044C18.356 11.1248 18.4001 11.558 18.4001 11.9911ZM9.66779 7.05451C8.14363 7.77322 7.00607 9.17563 6.65136 10.8658C6.79545 10.867 9.07307 10.8958 11.6973 10.1995C10.7513 8.52121 9.74061 7.15159 9.66779 7.05451ZM12.1501 11.0399C9.33589 11.8812 6.63543 11.8207 6.53856 11.817C6.53698 11.8756 6.53417 11.9324 6.53417 11.9911C6.53417 13.3932 7.06389 14.6714 7.93456 15.6379C7.93268 15.6351 9.4284 12.9853 12.3779 12.0329C12.4492 12.0092 12.5217 11.988 12.5936 11.9674C12.4564 11.6572 12.3067 11.3464 12.1501 11.0399ZM15.6094 7.89491C14.6471 7.04764 13.3836 6.5337 11.9998 6.5337C11.5557 6.5337 11.1247 6.58738 10.7119 6.68661C10.7938 6.79647 11.8204 8.15644 12.7551 9.87028C14.8174 9.09824 15.5959 7.91488 15.6094 7.89491ZM12.9661 12.8717C12.9539 12.8758 12.9418 12.8793 12.9299 12.8836C9.70507 14.0062 8.65196 16.2685 8.64057 16.2932C9.56845 17.0138 10.7323 17.4485 11.9998 17.4485C12.7567 17.4485 13.4777 17.2946 14.1337 17.016C14.0527 16.5391 13.7352 14.8677 12.9661 12.8717ZM15.054 16.5173C16.2813 15.6903 17.1528 14.3772 17.396 12.8561C17.2835 12.8199 15.7543 12.3365 13.9902 12.619C14.7071 14.5862 14.9984 16.1884 15.054 16.5173ZM13.1758 10.6835C13.3027 10.9438 13.4255 11.2087 13.539 11.4749C13.5793 11.5704 13.6187 11.6641 13.6571 11.7577C15.5347 11.5217 17.3845 11.9187 17.4635 11.9349C17.451 10.6411 16.9876 9.45367 16.2207 8.52404C16.2104 8.53867 15.3338 9.80349 13.1758 10.6835Z" fill="white"/>
</svg>
