<svg width="20" height="20" viewBox="0 0 20 20" fill="none" xmlns="http://www.w3.org/2000/svg">
<path d="M17.3117 14.9995C17.9361 14.9995 18.4328 14.6066 18.8787 14.0571C19.7916 12.9324 18.2928 12.0335 17.7211 11.5933C17.14 11.1459 16.4912 10.8924 15.8333 10.8328M15 9.16618C16.1506 9.16618 17.0833 8.23344 17.0833 7.08285C17.0833 5.93225 16.1506 4.99951 15 4.99951" stroke="#293049" stroke-opacity="0.7" stroke-width="1.5" stroke-linecap="round"/>
<path d="M2.68846 14.9995C2.06404 14.9995 1.56739 14.6066 1.12145 14.0571C0.20857 12.9324 1.70739 12.0335 2.27903 11.5933C2.86014 11.1459 3.50898 10.8924 4.16683 10.8328M4.5835 9.16618C3.4329 9.16618 2.50016 8.23344 2.50016 7.08285C2.50016 5.93225 3.4329 4.99951 4.5835 4.99951" stroke="#293049" stroke-opacity="0.7" stroke-width="1.5" stroke-linecap="round"/>
<path d="M6.73667 12.5925C5.88518 13.119 3.65265 14.1941 5.01241 15.5394C5.67665 16.1965 6.41643 16.6665 7.34652 16.6665H12.6538C13.5839 16.6665 14.3237 16.1965 14.9879 15.5394C16.3477 14.1941 14.1151 13.119 13.2637 12.5925C11.2669 11.3578 8.73338 11.3578 6.73667 12.5925Z" stroke="#293049" stroke-opacity="0.7" stroke-width="1.5" stroke-linecap="round" stroke-linejoin="round"/>
<path d="M12.9168 6.24967C12.9168 7.86051 11.611 9.16634 10.0002 9.16634C8.38933 9.16634 7.0835 7.86051 7.0835 6.24967C7.0835 4.63884 8.38933 3.33301 10.0002 3.33301C11.611 3.33301 12.9168 4.63884 12.9168 6.24967Z" stroke="#293049" stroke-opacity="0.7" stroke-width="1.5"/>
</svg>
