<svg width="20" height="20" viewBox="0 0 20 20" fill="none" xmlns="http://www.w3.org/2000/svg">
<path d="M2.0835 9.99967C2.0835 6.26772 2.0835 4.40175 3.24287 3.24238C4.40223 2.08301 6.26821 2.08301 10.0002 2.08301C13.7321 2.08301 15.5981 2.08301 16.7575 3.24238C17.9168 4.40175 17.9168 6.26772 17.9168 9.99967C17.9168 13.7316 17.9168 15.5976 16.7575 16.757C15.5981 17.9163 13.7321 17.9163 10.0002 17.9163C6.26821 17.9163 4.40223 17.9163 3.24287 16.757C2.0835 15.5976 2.0835 13.7316 2.0835 9.99967Z" stroke="#293049" stroke-opacity="0.7" stroke-width="1.5"/>
<path d="M6.25 14.1663C8.19308 12.1312 11.786 12.0354 13.75 14.1663M12.0792 7.91634C12.0792 9.06693 11.1452 9.99967 9.99294 9.99967C8.84071 9.99967 7.90664 9.06693 7.90664 7.91634C7.90664 6.76575 8.84071 5.83301 9.99294 5.83301C11.1452 5.83301 12.0792 6.76575 12.0792 7.91634Z" stroke="#293049" stroke-opacity="0.7" stroke-width="1.5" stroke-linecap="round"/>
</svg>
