<svg width="116" height="277" viewBox="0 0 116 277" fill="none" xmlns="http://www.w3.org/2000/svg">
<path d="M115.667 177.477C115.667 176.005 114.473 174.811 113 174.811C111.527 174.811 110.333 176.005 110.333 177.477C110.333 178.95 111.527 180.144 113 180.144C114.473 180.144 115.667 178.95 115.667 177.477ZM55.5 274V274.5H56V274H55.5ZM5.66667 274C5.66667 272.527 4.47276 271.333 3 271.333C1.52724 271.333 0.333333 272.527 0.333333 274C0.333333 275.473 1.52724 276.667 3 276.667C4.47276 276.667 5.66667 275.473 5.66667 274ZM55 -9.53674e-07L55 177.477H56L56 -9.53674e-07H55ZM55.5 177.977H113V176.977H55.5V177.977ZM55 177.477L55 274H56L56 177.477H55ZM55.5 273.5H3V274.5H55.5V273.5Z" fill="url(#paint0_linear_714_9743)"/>
<defs>
<linearGradient id="paint0_linear_714_9743" x1="58" y1="0" x2="58" y2="274" gradientUnits="userSpaceOnUse">
<stop offset="0.483" stop-color="#3957F8" stop-opacity="0.2"/>
<stop offset="0.843" stop-color="#3957F8" stop-opacity="0.7"/>
</linearGradient>
</defs>
</svg>
