<svg width="116" height="223" viewBox="0 0 116 223" fill="none" xmlns="http://www.w3.org/2000/svg">
<path d="M0.33431 80.5C0.33431 81.9728 1.52822 83.1667 3.00098 83.1667C4.47374 83.1667 5.66764 81.9728 5.66764 80.5C5.66764 79.0272 4.47374 77.8333 3.00098 77.8333C1.52822 77.8333 0.33431 79.0272 0.33431 80.5ZM60.501 3V2.5H60.001V3H60.501ZM110.334 3C110.334 4.47276 111.528 5.66667 113.001 5.66667C114.474 5.66667 115.668 4.47276 115.668 3C115.668 1.52724 114.474 0.333333 113.001 0.333333C111.528 0.333333 110.334 1.52724 110.334 3ZM61.001 223V80.5H60.001V223H61.001ZM60.501 80H3.00098V81H60.501V80ZM61.001 80.5V3H60.001V80.5H61.001ZM60.501 3.5H113.001V2.5H60.501V3.5Z" fill="url(#paint0_linear_714_9742)"/>
<defs>
<linearGradient id="paint0_linear_714_9742" x1="58.001" y1="223" x2="58.001" y2="3" gradientUnits="userSpaceOnUse">
<stop offset="0.483" stop-color="#3957F8" stop-opacity="0.2"/>
<stop offset="0.843" stop-color="#3957F8" stop-opacity="0.7"/>
</linearGradient>
</defs>
</svg>
